<svg xmlns="http://www.w3.org/2000/svg" viewBox="0 0 58 53.07"><g transform="translate(0 -2.46)"><path d="M44 18.4v21.13c0 2.73-2.2 4.93-4.93 4.93L22 44.53l-10 11v-11H4.93A4.93 4.93 0 010 39.61V18.47c0-2.73 2.2-4.93 4.93-4.93l34.14-.07c2.72 0 4.93 2.2 4.93 4.92z" fill="#ebba16"/><path d="M53.07 2.54l-34.14-.08A4.93 4.93 0 0014 7.4v6.13l25.07-.06c2.72 0 4.93 2.21 4.93 4.93v18.44l7 7.7v-11h2.07c2.72 0 4.93-2.2 4.93-4.92V7.47c0-2.73-2.2-4.93-4.93-4.93z" fill="#ed8a19"/><circle cx="11" cy="29.45" r="3" fill="#fff"/><circle cx="22" cy="29.45" r="3" fill="#fff"/><circle cx="33" cy="29.45" r="3" fill="#fff"/></g></svg>