<svg id="Capa_1" enable-background="new 0 0 510 510" height="512" viewBox="0 0 510 510" width="512" xmlns="http://www.w3.org/2000/svg" xmlns:xlink="http://www.w3.org/1999/xlink"><linearGradient id="SVGID_1_" gradientTransform="matrix(-.675 .738 .738 .675 2943.475 -1269.721)" gradientUnits="userSpaceOnUse" x1="2897.985" x2="2995.004" y1="-1237.592" y2="-1034.646"><stop offset="0" stop-color="#ffa325"/><stop offset="1" stop-color="#7c8a1a"/></linearGradient><linearGradient id="lg1"><stop offset="0" stop-color="#7c8a1a" stop-opacity="0"/><stop offset="1" stop-color="#5a6313"/></linearGradient><linearGradient id="SVGID_2_" gradientTransform="matrix(-.675 .738 .738 .675 2943.475 -1269.721)" gradientUnits="userSpaceOnUse" x1="2917.465" x2="2830.84" xlink:href="#lg1" y1="-1103.738" y2="-1063.643"/><linearGradient id="SVGID_3_" gradientTransform="matrix(-.675 .738 .738 .675 2943.475 -1269.721)" gradientUnits="userSpaceOnUse" x1="3004.657" x2="2859.629" xlink:href="#lg1" y1="-1143.87" y2="-1079.523"/><linearGradient id="SVGID_4_" gradientTransform="matrix(-.675 .738 .738 .675 2943.475 -1269.721)" gradientUnits="userSpaceOnUse" x1="3025.306" x2="2990.656" xlink:href="#lg1" y1="-1083.146" y2="-1156.902"/><linearGradient id="lg2"><stop offset="0" stop-color="#7c8a1a" stop-opacity="0"/><stop offset="1" stop-color="#544f43"/></linearGradient><linearGradient id="SVGID_5_" gradientTransform="matrix(-.675 .738 .738 .675 2943.475 -1269.721)" gradientUnits="userSpaceOnUse" x1="2952.307" x2="2952.307" xlink:href="#lg2" y1="-1128.112" y2="-1090.74"/><linearGradient id="SVGID_6_" gradientTransform="matrix(-.675 .738 .738 .675 2943.475 -1269.721)" gradientUnits="userSpaceOnUse" x1="2952.305" x2="2952.305" xlink:href="#lg2" y1="-1174.146" y2="-1107.029"/><linearGradient id="SVGID_7_" gradientTransform="matrix(-.675 .738 .738 .675 2943.475 -1269.721)" gradientUnits="userSpaceOnUse" x1="2952.303" x2="2952.303" xlink:href="#lg2" y1="-1218.967" y2="-1154.093"/><linearGradient id="SVGID_8_" gradientTransform="matrix(-.675 .738 .738 .675 2943.475 -1269.721)" gradientUnits="userSpaceOnUse" x1="2900.821" x2="2926.271" xlink:href="#lg2" y1="-1086.272" y2="-1060.822"/><linearGradient id="SVGID_9_" gradientTransform="matrix(-.998 .064 .064 .998 2749.597 -524.068)" gradientUnits="userSpaceOnUse" x1="2602.035" x2="2602.035" xlink:href="#lg2" y1="463.283" y2="528.155"/><linearGradient id="SVGID_10_" gradientTransform="matrix(-.998 .064 .064 .998 2749.597 -524.068)" gradientUnits="userSpaceOnUse" x1="2602.274" x2="2602.274" xlink:href="#lg2" y1="423.105" y2="484.734"/><linearGradient id="SVGID_11_" gradientTransform="matrix(-.675 .738 .738 .675 2943.475 -1269.721)" gradientUnits="userSpaceOnUse" x1="3003.709" x2="2981.93" xlink:href="#lg2" y1="-1081.575" y2="-1060.29"/><linearGradient id="SVGID_12_" gradientTransform="matrix(-.675 .738 .738 .675 2943.475 -1269.721)" gradientUnits="userSpaceOnUse" x1="3029.285" x2="3001.813" xlink:href="#lg2" y1="-1112.035" y2="-1087.781"/><linearGradient id="SVGID_13_" gradientTransform="matrix(-.675 .738 .738 .675 2943.475 -1269.721)" gradientUnits="userSpaceOnUse" x1="3058.155" x2="3039.098" xlink:href="#lg2" y1="-1141.951" y2="-1107.549"/><linearGradient id="SVGID_14_" gradientTransform="matrix(.81 .586 -.586 .81 -485.249 -1068.231)" gradientUnits="userSpaceOnUse" x1="1164.854" x2="1242.763" y1="563.006" y2="670.025"><stop offset="0" stop-color="#ffa325"/><stop offset="1" stop-color="#5a6313"/></linearGradient><linearGradient id="lg3"><stop offset="0" stop-color="#ff7044"/><stop offset=".2892" stop-color="#ff6d42"/><stop offset=".5055" stop-color="#fe633c"/><stop offset=".698" stop-color="#fc5331"/><stop offset=".8757" stop-color="#fa3d22"/><stop offset="1" stop-color="#f82814"/></linearGradient><radialGradient id="SVGID_15_" cx="223.752" cy="90.089" gradientUnits="userSpaceOnUse" r="196.702" xlink:href="#lg3"/><linearGradient id="lg4"><stop offset="0" stop-color="#f82814" stop-opacity="0"/><stop offset="1" stop-color="#c0272d"/></linearGradient><linearGradient id="SVGID_16_" gradientTransform="matrix(.834 .553 -.553 .834 2751.216 -413.639)" gradientUnits="userSpaceOnUse" x1="-1700.926" x2="-1519.988" xlink:href="#lg4" y1="1900.8" y2="1717.497"/><linearGradient id="SVGID_17_" gradientTransform="matrix(.98 .201 -.201 .98 71.362 -53.471)" gradientUnits="userSpaceOnUse" x1="264.093" x2="252.863" xlink:href="#lg3" y1="136.705" y2="83.759"/><linearGradient id="lg5"><stop offset="0" stop-color="#f35227"/><stop offset="1" stop-color="#d60a00"/></linearGradient><linearGradient id="SVGID_18_" gradientTransform="matrix(-.98 -.201 .201 -.98 627.316 -658.332)" gradientUnits="userSpaceOnUse" x1="163.776" x2="163.776" xlink:href="#lg5" y1="-789.262" y2="-830.042"/><radialGradient id="SVGID_19_" cx="365.701" cy="262.002" gradientTransform="matrix(.98 .201 -.201 .98 71.362 -53.471)" gradientUnits="userSpaceOnUse" r="151.473" xlink:href="#lg3"/><linearGradient id="SVGID_20_" gradientTransform="matrix(.199 .98 -.98 .199 2162.664 1308.27)" gradientUnits="userSpaceOnUse" x1="-1297.133" x2="-1131.726" xlink:href="#lg4" y1="1560.61" y2="1393.04"/><linearGradient id="SVGID_21_" gradientTransform="matrix(.551 .835 -.835 .551 12.23 -332.092)" gradientUnits="userSpaceOnUse" x1="766.469" x2="756.203" xlink:href="#lg3" y1="-19.804" y2="-68.202"/><linearGradient id="SVGID_22_" gradientTransform="matrix(-.551 -.835 .835 -.551 833.39 -367.172)" gradientUnits="userSpaceOnUse" x1="-339.252" x2="-339.252" xlink:href="#lg5" y1="-637.731" y2="-675.009"/><linearGradient id="SVGID_23_" gradientUnits="userSpaceOnUse" x1="375.549" x2="268.385" xlink:href="#lg4" y1="369.942" y2="345.51"/><radialGradient id="SVGID_24_" cx="-478.436" cy="-123.971" gradientTransform="matrix(.41 -.912 .912 .41 429.91 -38.279)" gradientUnits="userSpaceOnUse" r="151.465" xlink:href="#lg3"/><linearGradient id="SVGID_25_" gradientTransform="matrix(1 .02 -.02 1 2214.088 -1781.412)" gradientUnits="userSpaceOnUse" x1="-1981.414" x2="-1816.005" xlink:href="#lg4" y1="2185.976" y2="2018.404"/><linearGradient id="SVGID_26_" gradientTransform="matrix(.935 -.355 .355 .935 144.633 -40.836)" gradientUnits="userSpaceOnUse" x1="-102.699" x2="-112.965" xlink:href="#lg3" y1="303.833" y2="255.436"/><linearGradient id="SVGID_27_" gradientTransform="matrix(-.935 .355 -.355 -.935 289.661 -850.471)" gradientUnits="userSpaceOnUse" x1="530.128" x2="530.128" xlink:href="#lg5" y1="-961.944" y2="-999.222"/><g><g><path d="m22.42 253.69-.002-.051c-.644-14.363-8.017-26.825-18.935-34.5-1.479-1.04-1.575-3.192-.195-4.36 10.187-8.621 16.416-21.693 15.772-36.056l-.002-.051c-.108-2.41 1.995-4.364 4.381-4.011 3.031.449 6.148.617 9.323.475 8.742-.392 16.838-3.072 23.743-7.432.498-.314.493-1.047-.002-1.366l-26.348-17.029c-3.197-2.066-5.167-5.626-5.08-9.432.311-13.552-5.012-27.16-15.802-37.025-2.346-2.145-4.846-4.013-7.46-5.612-2.058-1.259-2.42-4.106-.792-5.887l.035-.038c9.701-10.611 13.299-24.638 11.006-37.784-.312-1.788 1.136-3.372 2.945-3.221 13.299 1.107 26.947-3.731 36.648-14.343l.035-.038c1.628-1.781 4.496-1.675 5.934.262 1.826 2.461 3.911 4.784 6.257 6.928 10.79 9.865 24.821 13.948 38.29 12.427 3.783-.427 7.505 1.216 9.849 4.216l19.318 24.719c.363.464 1.092.404 1.361-.12 3.725-7.267 5.67-15.57 5.278-24.313-.142-3.176-.589-6.266-1.308-9.246-.566-2.345 1.193-4.614 3.603-4.72l.051-.002c14.363-.644 26.826-8.018 34.5-18.935 1.039-1.479 3.192-1.575 4.36-.195 8.621 10.187 21.693 16.416 36.056 15.772l.051-.002c2.411-.107 4.364 1.997 4.01 4.384-.449 3.03-.617 6.146-.474 9.321.652 14.542 7.628 27.304 18.152 35.753 3.017 2.422 4.59 6.214 4.119 10.054l-4.39 35.792c-.581 4.738 3.026 8.919 7.795 9.115 7.351.302 14.607 1.358 21.658 3.128 3.04.763 4.374 4.354 2.588 6.93-11.993 17.296-29.187 31.247-50.383 39.203-2.879 1.081-5.775 2.029-8.682 2.848-16.432 4.632-28.72 18.073-31.863 34.853-.556 2.968-1.241 5.938-2.06 8.902-6.028 21.823-18.385 40.197-34.538 53.688-2.406 2.01-6.101 1.002-7.133-1.958-2.394-6.864-4.095-13.996-5.053-21.291-.622-4.733-5.109-7.951-9.776-6.949l-35.256 7.574c-3.783.813-7.7-.415-10.382-3.203-9.357-9.726-22.691-15.533-37.234-14.881-3.175.142-6.263.589-9.241 1.307-2.348.567-4.618-1.19-4.727-3.6z" fill="url(#SVGID_1_)"/><path d="m27.141 257.29c2.979-.717 6.071-1.16 9.243-1.308 14.544-.647 27.88 5.157 37.235 14.886 2.684 2.786 6.602 4.014 10.381 3.203l35.255-7.577c4.669-1.003 9.16 2.217 9.776 6.946.963 7.299 2.66 14.433 5.059 21.294 1.026 2.96 4.724 3.966 7.13 1.961 16.15-13.495 28.512-31.87 34.539-53.693.818-2.964 1.5-5.932 2.061-8.9 1.574-8.39 5.424-15.946 10.944-21.985l-11.689-186.133c-.852-.004-1.701.386-2.25 1.162-7.677 10.918-20.139 18.288-34.505 18.937l-.047-.003c-2.413.108-4.172 2.373-3.604 4.723.717 2.979 1.16 6.071 1.308 9.243.387 8.744-1.559 17.045-5.28 24.317-.266.522-.999.586-1.361.114l-19.318-24.712c-1.171-1.493-2.684-2.654-4.372-3.383-1.694-.744-3.579-1.048-5.477-.832-13.47 1.518-27.501-2.567-38.291-12.431-2.346-2.144-4.431-4.463-6.254-6.925-1.438-1.938-4.307-2.046-5.935-.265l-.035.038c-9.699 10.609-23.351 15.452-36.65 14.34-1.809-.145-3.252 1.433-2.946 3.222 2.297 13.146-1.304 27.176-11.003 37.786l-.035.039c-1.628 1.781-1.264 4.629.795 5.887 2.615 1.596 5.111 3.465 7.457 5.61 10.79 9.864 16.114 23.474 15.807 37.026-.092 3.809 1.88 7.363 5.079 9.432l26.342 17.029c.503.319.505 1.055.009 1.366-6.91 4.356-15.004 7.037-23.747 7.434-3.173.137-6.292-.028-9.323-.476-2.381-.356-4.49 1.599-4.382 4.012l.007.047c.639 14.366-5.586 27.437-15.774 36.06-1.377 1.165-1.286 3.321.195 4.353 10.918 7.678 18.288 20.139 18.937 34.505l-.003.048c.107 2.412 2.383 4.171 4.722 3.603z" fill="url(#SVGID_2_)"/><path d="m177.82 234.102c-.556 2.968-1.241 5.938-2.06 8.902-6.028 21.823-18.385 40.197-34.538 53.688-2.406 2.01-6.101 1.002-7.133-1.958-2.394-6.864-4.095-13.996-5.053-21.291-.622-4.733-5.109-7.951-9.776-6.949l-35.256 7.574c-3.783.813-7.7-.415-10.382-3.203-9.357-9.726-22.691-15.532-37.234-14.881-3.175.142-6.263.589-9.241 1.307-2.346.566-4.615-1.192-4.725-3.602l-.002-.051c-.644-14.363-8.017-26.825-18.935-34.5-1.479-1.04-1.575-3.192-.195-4.36 10.187-8.621 16.416-21.693 15.772-36.056l-.002-.051c-.108-2.41 1.995-4.364 4.381-4.011 3.031.449 6.148.617 9.323.475 8.742-.392 16.838-3.072 23.743-7.432.498-.315.493-1.047-.002-1.366l-26.348-17.029c-3.197-2.066-5.167-5.626-5.08-9.432.31-13.551-5.012-27.16-15.802-37.025-2.346-2.145-4.846-4.013-7.46-5.612-2.059-1.259-2.42-4.106-.792-5.887l.035-.038c9.701-10.611 13.299-24.638 11.006-37.784-.156-.894.128-1.737.677-2.338l176.03 160.926c-5.522 6.038-9.38 13.594-10.951 21.984z" fill="url(#SVGID_3_)"/><path d="m27.141 257.29c2.979-.717 6.071-1.16 9.243-1.308 14.544-.647 27.88 5.157 37.235 14.886 2.684 2.786 6.602 4.014 10.381 3.203l35.255-7.577c4.669-1.003 9.16 2.217 9.776 6.946.963 7.299 2.66 14.433 5.059 21.294 1.026 2.96 4.724 3.966 7.13 1.961 16.15-13.495 28.512-31.87 34.539-53.693.818-2.964 1.5-5.932 2.061-8.9 1.568-8.395 5.424-15.946 10.944-21.985l-186.431 5.009c.056.775.452 1.52 1.152 2.009 10.918 7.678 18.288 20.139 18.937 34.505l-.003.048c.107 2.411 2.383 4.17 4.722 3.602z" fill="url(#SVGID_4_)"/><g><path d="m145.249 172.335-2.638-58.845c-32.499 1.457-57.664 28.983-56.207 61.482z" fill="url(#SVGID_5_)"/><path d="m111.082 141.099-2.638-58.845c-32.499 1.457-57.664 28.983-56.207 61.482z" fill="url(#SVGID_6_)"/><path d="m76.915 109.864-2.638-58.845c-32.499 1.457-57.664 28.983-56.207 61.482z" fill="url(#SVGID_7_)"/></g><g><path d="m186.954 175.395 38.919-44.215c-24.419-21.494-61.64-19.123-83.134 5.296z" fill="url(#SVGID_8_)"/><path d="m184.391 137.688 38.919-44.215c-24.419-21.494-61.64-19.123-83.134 5.296z" fill="url(#SVGID_9_)"/><path d="m181.488 95.911 30.854-35.053c2.298-2.61 2.044-6.59-.566-8.887l-.645-.568c-19.003-16.727-47.967-14.881-64.693 4.121l-.568.645c-2.298 2.611-2.044 6.59.566 8.887z" fill="url(#SVGID_10_)"/></g><g><path d="m154.725 216.806-40.556 42.719c-23.593-22.398-24.561-59.682-2.163-83.275z" fill="url(#SVGID_11_)"/><path d="m113.158 215.607-40.556 42.719c-23.593-22.398-24.561-59.682-2.163-83.275z" fill="url(#SVGID_12_)"/><path d="m70.653 215.311-31.413 33.088c-2.34 2.464-6.234 2.565-8.698.226l-.609-.578c-17.938-17.029-18.674-45.376-1.644-63.314l.578-.609c2.339-2.464 6.234-2.565 8.698-.226z" fill="url(#SVGID_13_)"/></g><path d="m192.161 208.802c-2.396 2.087-4.531 4.426-6.4 6.989-1.716-.892-3.739-1.119-5.656-.571-2.817.784-6.274 1.708-7.619 1.924-4.8.809-9.526 1.274-14.207 1.677-.916.083-1.816.145-2.725.217l-3.399 3.232c-1.514 1.393-3.005 2.819-4.543 4.18-1.535 1.378-3.06 2.764-4.619 4.109-1.548 1.353-3.128 2.683-4.708 4.013-.777.658-1.583 1.312-2.388 1.966-.788.651-1.593 1.305-2.401 1.94-1.614 1.29-3.248 2.564-4.896 3.813l-.106.081c-1.871 1.405-4.221-1.023-2.758-2.849l.075-.104c1.305-1.608 2.621-3.208 3.96-4.775.664-.788 1.339-1.567 2.024-2.34.675-.78 1.347-1.578 2.035-2.332 1.381-1.537 2.762-3.074 4.166-4.579 1.384-1.519 2.82-3.001 4.237-4.48.376-.41.764-.794 1.15-1.197-4.228.192-8.41.322-12.512.383-5.162.103-10.188.13-15.103.11-.533.518-1.069 1.018-1.612 1.529-1.062.943-2.094 1.91-3.166 2.845-1.083.928-2.146 1.872-3.252 2.767-1.086.91-2.204 1.798-3.331 2.679-.552.456-1.128.88-1.693 1.311-.576.424-1.141.855-1.727 1.271-1.159.858-2.334 1.672-3.527 2.489-.051.027-.109.064-.15.098-1.846 1.216-4.018-1.019-2.734-2.817l.105-.146c.85-1.176 1.703-2.334 2.591-3.452.432-.575.877-1.125 1.329-1.685s.887-1.118 1.361-1.663c.911-1.084 1.829-2.18 2.782-3.234.612-.715 1.237-1.404 1.872-2.085-7.855-.117-15.84-.866-22.708-1.141-2.766-.098-5.432-.203-8-.332l-.566.542c-2.301 2.219-4.77 4.253-7.49 6.042-.333.219-.694.433-1.037.645-.351.222-.694.433-1.058.63-.704.426-1.442.811-2.191 1.189-.102.053-.204.106-.298.149-1.724.829-3.514-1.035-2.627-2.723.047-.109.097-.2.146-.29.406-.737.815-1.455 1.255-2.152.209-.355.44-.696.66-1.044.23-.34.443-.678.684-1.011.622-.882 1.277-1.723 1.936-2.546-6.04-.326-11.282-.725-15.573-1.037-4.113-.295-4.085-1.495.033-1.624 4.3-.139 9.571-.306 15.638-.5-.755-.863-1.502-1.736-2.202-2.654-.492-.657-.973-1.306-1.443-1.994-.459-.68-.903-1.382-1.332-2.104-.053-.102-.117-.211-.18-.32-.946-1.651.777-3.574 2.527-2.816.109.047.217.094.336.148.753.339 1.502.706 2.236 1.094.723.38 1.432.781 2.132 1.193 2.791 1.685 5.345 3.611 7.73 5.747l1.493 1.333c2.324-.079 4.722-.152 7.202-.229 7.06-.252 15.246-.023 23.323-.301.365-.022.757-.039 1.132-.053-.303-.282-.606-.565-.894-.868-.999-1.008-2.013-1.994-2.989-3.033-.984-1.028-1.953-2.078-2.914-3.137s-1.897-2.132-2.828-3.233c-.921-1.094-1.827-2.208-2.717-3.343-.047-.066-.102-.122-.15-.188-1.349-1.751.735-4.064 2.62-2.923.07.035.132.08.213.122 1.208.762 2.426 1.532 3.622 2.333 1.185.794 2.366 1.615 3.521 2.451 1.163.825 2.31 1.67 3.436 2.547 1.14.856 2.24 1.746 3.357 2.633.557.435 1.092.9 1.635 1.356l1.645 1.363 3.201 2.806.749.652c4.163-.191 8.409-.386 12.723-.611 4.54-.252 9.159-.525 13.816-.851l-.183-.164c-.74-.709-1.494-1.397-2.236-2.124-1.471-1.428-2.968-2.843-4.409-4.313-1.474-1.446-2.915-2.916-4.341-4.407-1.434-1.48-2.852-2.981-4.256-4.503-1.393-1.514-2.782-3.057-4.145-4.613l-.126-.154c-1.536-1.777.708-4.29 2.633-2.962l.166.12c1.709 1.188 3.392 2.389 5.06 3.611s3.311 2.457 4.949 3.72c1.628 1.256 3.258 2.53 4.855 3.827 1.62 1.266 3.195 2.595 4.785 3.903.795.654 1.564 1.321 2.352 1.986l2.347 2.014 3.598 3.156c.698-.066 1.388-.122 2.085-.188 4.555-.447 9.117-1.015 13.577-1.769 2.174-.377 4.312-.813 6.319-1.375l-35-31.988-4.67.015-3.41-.041c-1.143-.018-2.284-.019-3.423-.066-2.272-.058-4.559-.095-6.839-.206-2.275-.076-4.556-.187-6.839-.317-2.276-.14-4.562-.288-6.836-.474-2.282-.176-4.559-.38-6.849-.609l-.224-.019c-2.35-.257-2.384-3.673-.031-3.968l.226-.027c2.274-.274 4.543-.519 6.825-.739 2.283-.22 4.55-.419 6.831-.592 2.281-.174 4.554-.337 6.836-.446 2.276-.145 4.553-.226 6.835-.335 1.14-.064 2.277-.081 3.412-.116l.767-.031c-2.509-2.448-5.046-4.9-7.599-7.332-4.564-4.362-9.118-8.716-13.607-13.007-.392-.378-.792-.746-1.183-1.125l-.249-.006-4.719-.005-2.362-.043c-.786-.03-1.578-.031-2.357-.072-1.576-.078-3.146-.12-4.718-.226-1.579-.096-3.153-.22-4.728-.343-1.577-.142-3.139-.305-4.715-.493-1.583-.178-3.154-.394-4.728-.629-.085-.014-.16-.02-.245-.034-2.21-.362-2.243-3.539-.036-3.94.082-.004.161-.026.241-.048 1.568-.261 3.138-.505 4.714-.712 1.566-.215 3.145-.404 4.709-.573 1.575-.161 3.141-.312 4.714-.427 1.577-.143 3.138-.22 4.714-.316.508-.045 1.003-.051 1.507-.068-1.252-1.206-2.493-2.404-3.721-3.578-4.249-4.118-8.365-8.092-12.264-11.861-3.28-3.179-6.39-6.22-9.333-9.077l-2.139.022c-3.544.036-7.093-.184-10.628-.775-.896-.141-1.778-.303-2.665-.5-.895-.187-1.777-.413-2.663-.657-.106-.029-.212-.058-.328-.094-1.89-.542-1.916-3.224-.033-3.811.105-.035.21-.071.325-.098.887-.262 1.759-.504 2.646-.701.885-.216 1.766-.403 2.652-.555 1.59-.292 3.184-.503 4.787-.659-3.967-3.851-7.346-7.134-9.96-9.721-3.942-3.864-3.238-4.639.971-1.057 2.808 2.363 6.384 5.439 10.588 9.05.008-1.611.072-3.212.226-4.828.02-.445.095-.898.133-1.346.056-.451.105-.891.179-1.344.123-.894.282-1.793.459-2.695.019-.113.04-.209.062-.304.416-1.934 3.094-2.153 3.804-.308.043.094.068.192.11.286.324.868.626 1.72.886 2.589.144.437.259.869.385 1.308.123.422.259.869.357 1.304.898 3.47 1.435 6.98 1.736 10.51l.179 2.142c3.106 2.674 6.403 5.501 9.872 8.484 4.093 3.545 8.428 7.281 12.904 11.151 1.284 1.118 2.588 2.251 3.892 3.385-.024-.493-.051-1.004-.057-1.499-.051-1.574-.112-3.155-.116-4.727-.015-1.58-.001-3.154.02-4.74-.006-.781.032-1.578.051-2.372.03-.787.049-1.581.097-2.37.067-1.583.17-3.173.284-4.755.111-1.315.166-2.685 2.874-1.63.538.199.952.656 1.087 1.214.006.036.019.061.025.097.376 1.54.727 3.093 1.05 4.642.181.78.315 1.559.467 2.335s.315 1.559.439 2.33c.269 1.557.538 3.114.771 4.677.258 1.55.445 3.111.649 4.669.215 1.566.366 3.133.535 4.697s.301 3.134.442 4.693l.022.254c.407.358.814.715 1.229 1.063 4.678 4.095 9.421 8.253 14.171 12.401 2.656 2.332 5.324 4.626 7.992 6.919-.086-1.394-.172-2.787-.222-4.186-.109-2.282-.226-4.553-.289-6.833-.081-2.277-.119-4.57-.153-6.846-.028-1.145-.027-2.286-.027-3.426-.01-1.148-.009-2.289.009-3.432.009-2.292.056-4.571.119-6.871l.005-.139c.079-2.367 3.494-2.64 3.951-.313l.031.133c.427 2.258.834 4.502 1.215 6.758.2 1.127.381 2.257.545 3.389.182 1.13.381 2.257.527 3.392.335 2.255.652 4.512.943 6.783.307 2.25.552 4.519.815 6.786.263 2.266.48 4.531.708 6.803l.415 4.642 34.999 31.991c.37-2.046.62-4.211.8-6.411.342-4.507.513-9.105.541-13.681.016-.702-.004-1.398.002-2.107l-3.461-3.279-2.206-2.165c-.732-.719-1.471-1.428-2.188-2.168-1.449-1.459-2.915-2.916-4.324-4.41-1.434-1.48-2.852-2.981-4.246-4.495-1.404-1.522-2.789-3.047-4.152-4.603-1.371-1.546-2.708-3.115-4.049-4.702l-.126-.155c-1.496-1.811.804-4.268 2.716-2.902l.156.113c1.678 1.229 3.339 2.462 4.977 3.725 1.628 1.256 3.258 2.53 4.855 3.827 1.615 1.295 3.205 2.603 4.78 3.931 1.59 1.308 3.132 2.661 4.692 4.01.787.664 1.552 1.36 2.314 2.038l.172.156c-.097-4.666-.232-9.28-.401-13.824-.153-4.326-.33-8.574-.521-12.738l-.716-.676-3.068-2.947-1.511-1.505c-.505-.508-1.006-.997-1.496-1.525-.973-1.021-1.983-2.036-2.926-3.098-.969-1.049-1.912-2.112-2.841-3.195-.936-1.073-1.849-2.177-2.755-3.291s-1.779-2.253-2.644-3.401c-.047-.066-.102-.122-.15-.188-1.298-1.778.828-4.06 2.683-2.878.073.053.135.098.205.133 1.203.791 2.399 1.592 3.569 2.406 1.173.832 2.328 1.667 3.479 2.531 1.14.856 2.265 1.733 3.365 2.623 1.125.877 2.202 1.798 3.305 2.706.318.262.618.526.929.798-.014-.375-.039-.757-.061-1.121-.424-8.072-1.391-16.203-1.779-23.251-.141-2.479-.27-4.887-.404-7.201l-1.452-1.367c-2.337-2.181-4.493-4.548-6.414-7.173-.474-.66-.951-1.337-1.384-2.031-.451-.691-.888-1.402-1.299-2.127-.053-.102-.117-.211-.17-.313-.906-1.685.852-3.568 2.59-2.771.109.047.217.094.319.151.756.357 1.498.734 2.216 1.143.726.398 1.419.82 2.113 1.242.982.615 1.916 1.274 2.834 1.954-.347-6.051-.65-11.31-.89-15.603-.249-4.126.953-4.255 1.607-.185.709 4.237 1.581 9.431 2.441 15.409.766-.73 1.542-1.453 2.359-2.145.306-.27.626-.515.952-.77.316-.262.626-.514.963-.762.657-.492 1.334-.969 2.04-1.441.084-.05.175-.111.267-.172 1.618-1.033 3.627.594 2.95 2.386-.039.098-.079.197-.108.302-.315.786-.643 1.548-.992 2.293-.161.375-.342.736-.531 1.106-.181.36-.37.731-.562 1.084-1.535 2.868-3.343 5.522-5.344 8.006l-.475.591c.356 2.555.69 5.205 1.049 7.953.885 6.82 2.343 14.689 3.158 22.505.625-.689 1.261-1.371 1.899-2.034.973-1.039 1.978-2.056 2.975-3.063.497-.512 1.025-1.002 1.533-1.507.518-.497 1.036-.994 1.557-1.474 1.046-.987 2.116-1.941 3.207-2.879.048-.045.096-.089.144-.133 1.683-1.429 4.097.537 3.046 2.472-.027.06-.054.119-.085.161-.697 1.271-1.407 2.516-2.149 3.739-.369.621-.742 1.223-1.132 1.828-.38.613-.742 1.223-1.142 1.821-.783 1.193-1.559 2.375-2.373 3.545-.794 1.185-1.639 2.333-2.467 3.478-.825 1.163-1.702 2.288-2.55 3.418-.45.578-.91 1.149-1.359 1.727.448 4.904.878 9.921 1.235 15.06.3 4.1.538 8.265.74 12.5.355-.425.702-.839 1.06-1.246 1.37-1.545 2.71-3.112 4.104-4.624 1.363-1.534 2.775-3.049 4.18-4.553.706-.757 1.425-1.489 2.142-2.239.709-.74 1.425-1.489 2.152-2.232 1.446-1.474 2.924-2.926 4.404-4.359l.096-.089c1.698-1.625 4.312.503 3.077 2.494l-.068.094c-1.097 1.758-2.215 3.502-3.353 5.23-.56.863-1.149 1.721-1.72 2.576-.581.848-1.16 1.713-1.751 2.553-1.18 1.698-2.363 3.378-3.577 5.036-1.201 1.683-2.436 3.326-3.671 4.968-1.225 1.65-2.501 3.263-3.755 4.908l-2.916 3.66c.019.917.027 1.826.028 2.746.028 4.695-.017 9.449-.397 14.293-.102 1.368-.713 4.888-1.243 7.77-.366 1.951.046 3.945 1.082 5.581z" fill="url(#SVGID_14_)"/></g><g><g><g><path d="m289.156 83.253c-75.197-5.718-140.217 31.546-148.159 113.509-7.943 81.962 46.577 153.042 121.774 158.76s142.596-56.09 150.538-138.053c7.944-81.963-48.955-128.498-124.153-134.216z" fill="url(#SVGID_15_)"/><path d="m413.31 217.469c6.111-63.064-26.167-105.148-75.629-123.811 16.954 21.735 25.592 50.482 22.167 85.823-7.943 81.962-75.341 143.771-150.538 138.053-12.059-.917-23.576-3.534-34.399-7.588 21.861 25.825 52.585 42.893 87.861 45.575 75.197 5.719 142.595-56.09 150.538-138.052z" fill="url(#SVGID_16_)"/></g><path d="m273.226 104.902c1.798-8.77 16.345-13.196 32.492-9.886s27.779 13.103 25.982 21.873c-1.798 8.77-16.345 13.196-32.492 9.886-16.148-3.31-27.78-13.103-25.982-21.873z" fill="url(#SVGID_17_)"/><path d="m278.08 104.418c1.382-6.739 13.549-9.938 27.176-7.145 13.627 2.794 23.554 10.521 22.173 17.261-1.382 6.74-13.548 9.938-27.176 7.145s-23.555-10.521-22.173-17.261z" fill="url(#SVGID_18_)"/></g><g><g><g><path d="m468.113 422.618c-58.114 47.846-141.632 44.233-186.543-8.071-44.911-52.303-34.207-133.49 23.907-181.336s124.23-29.905 169.141 22.398c44.911 52.305 51.61 119.164-6.505 167.009z" fill="url(#SVGID_19_)"/></g><path d="m468.113 422.618c44.714-36.814 51.053-84.882 31.145-128.916-3.091 25.009-16.089 49.174-41.147 69.804-58.114 47.846-141.633 44.233-186.543-8.07-7.202-8.387-12.956-17.524-17.331-27.14-2.562 30.824 6.265 61.716 27.333 86.252 44.911 52.303 128.429 55.916 186.543 8.07z" fill="url(#SVGID_20_)"/></g><path d="m450.326 259.307c6.831-4.507 19.095 2.036 27.393 14.613s9.487 26.426 2.656 30.933-19.095-2.036-27.393-14.613c-8.298-12.578-9.487-26.427-2.656-30.933z" fill="url(#SVGID_21_)"/><path d="m453.777 262.131c5.249-3.463 15.182 2.334 22.185 12.948s8.424 22.026 3.175 25.49c-5.249 3.463-15.182-2.334-22.184-12.948-7.004-10.614-8.426-22.027-3.176-25.49z" fill="url(#SVGID_22_)"/></g><g><g><g><path d="m254.865 252.701v101.961h.004c2.88 21.642 11.672 42.382 26.702 59.886 38.542 44.886 105.517 53.91 160.469 25.327z" fill="url(#SVGID_23_)"/><path d="m283.13 290.292c34.007 67.156 12.251 147.872-48.594 180.284-60.845 32.411-137.738 4.244-171.745-62.912-34.007-67.157-2.067-127.762 58.778-160.173 60.845-32.412 127.554-24.356 161.561 42.801z" fill="url(#SVGID_24_)"/></g><path d="m283.13 290.292c-26.166-51.672-71.691-68.35-119.01-58.533 23.731 8.475 44.476 26.435 59.139 55.391 34.007 67.156 12.251 147.872-48.594 180.284-9.757 5.198-19.929 8.818-30.269 10.989 29.522 9.229 61.596 7.357 90.139-7.847 60.846-32.411 82.602-113.127 48.595-180.284z" fill="url(#SVGID_25_)"/></g><path d="m119.874 272.003c-2.907-7.65 6.154-18.19 20.239-23.543 14.085-5.352 27.86-3.49 30.767 4.16s-6.155 18.19-20.239 23.543c-14.086 5.352-27.86 3.49-30.767-4.16z" fill="url(#SVGID_26_)"/><path d="m123.383 269.252c-2.234-5.879 5.591-14.306 17.478-18.823s23.334-3.413 25.568 2.466-5.591 14.306-17.478 18.823-23.334 3.413-25.568-2.466z" fill="url(#SVGID_27_)"/></g></g></g></svg>