<svg id="Capa_1" enable-background="new 0 0 509.751 509.751" height="512" viewBox="0 0 509.751 509.751" width="512" xmlns="http://www.w3.org/2000/svg"><path d="m269.646 68.451v66.05h-30v-66.05c0-16.14-4.95-31.61-14.32-44.74-4.81-6.74-3.24-16.11 3.5-20.92 6.75-4.81 16.11-3.25 20.92 3.5 13.02 18.25 19.9 39.74 19.9 62.16z" fill="#804231"/><path d="m317.54 431.697c0 24.765-15.523 47.246-31.379 63.75-8.585 8.94-19.852 13.687-31.285 14.25-12.936.626-26.101-4.121-35.834-14.25-15.857-16.503-31.369-38.984-31.369-63.75 0-50.668 29.074-91.749 64.929-91.749.762 0 1.523.021 2.274.063 34.811 1.689 62.664 42.092 62.664 91.686z" fill="#d5fc9a"/><path d="m317.54 431.697c0 24.765-15.523 47.246-31.379 63.75-8.585 8.94-19.852 13.687-31.285 14.25v-169.687c34.811 1.69 62.664 42.093 62.664 91.687z" fill="#7ee881"/><path d="m257.129 340.52c3.976 24.447-7.729 49.122-20.736 67.961-15.023 21.759-45.099 26.651-66.243 10.773-18.306-13.747-37.226-33.441-41.202-57.888-8.134-50.014 13.967-95.225 49.363-100.981 35.396-5.757 70.684 30.121 78.818 80.135z" fill="#00cc71"/><path d="m252.622 340.52c-3.976 24.447 7.729 49.122 20.736 67.961 15.023 21.759 45.099 26.651 66.243 10.773 18.306-13.747 37.226-33.441 41.202-57.888 8.134-50.014-13.967-95.225-49.363-100.981-35.396-5.757-70.684 30.121-78.818 80.135z" fill="#00ab5e"/><path d="m174.857 301.371c-15.541 19.286-41.724 27.052-64.432 29.952-26.228 3.35-49.955-15.77-52.257-42.111-1.993-22.806.03-50.041 15.571-69.326 31.794-39.455 80.205-53.198 108.128-30.696s24.785 72.726-7.01 112.181z" fill="#00ab5e"/><path d="m334.894 301.371c15.541 19.286 41.724 27.052 64.432 29.952 26.228 3.35 49.955-15.77 52.257-42.111 1.993-22.806-.03-50.041-15.571-69.326-31.794-39.455-80.205-53.198-108.128-30.696-27.923 22.501-24.785 72.726 7.01 112.181z" fill="#00cc71"/><path d="m319.804 253.654c0 24.765-15.512 47.246-31.369 63.75-9.159 9.535-21.354 14.302-33.56 14.302s-24.401-4.767-33.56-14.302c-15.857-16.503-31.369-38.984-31.369-63.75 0-50.668 29.064-91.749 64.929-91.749s64.929 41.081 64.929 91.749z" fill="#d5fc9a"/><path d="m288.435 317.404c-9.159 9.535-21.354 14.302-33.56 14.302v-169.801c35.865 0 64.929 41.081 64.929 91.749 0 24.766-15.512 47.247-31.369 63.75z" fill="#7ee881"/><path d="m230.407 211.666c-15.541 19.286-41.724 27.052-64.432 29.952-26.228 3.35-49.955-15.77-52.257-42.111-1.993-22.805.03-50.041 15.571-69.326 31.794-39.455 80.205-53.198 108.128-30.696s24.784 72.726-7.01 112.181z" fill="#00cc71"/><path d="m279.344 211.666c15.541 19.286 41.724 27.052 64.432 29.952 26.228 3.35 49.955-15.77 52.257-42.111 1.993-22.805-.03-50.041-15.571-69.326-31.794-39.455-80.205-53.198-108.128-30.696s-24.784 72.726 7.01 112.181z" fill="#00ab5e"/></svg>