<svg xmlns="http://www.w3.org/2000/svg" width="569.7884" height="1018.4168" viewBox="0 0 150.7565 269.4561">
  <defs>
    <linearGradient x1="37.1638" y1="71.0701" x2="106.3168" y2="85.8181" id="a" gradientTransform="matrix(.9621 0 0 1.7348 135.3478 139.625)" gradientUnits="userSpaceOnUse">
      <stop stop-color="#919191" offset="0%"/>
      <stop stop-color="#FFF" offset="100%"/>
    </linearGradient>
    <linearGradient x1="33.756" y1="100.2823" x2="73.6913" y2="109.6271" id="b" gradientTransform="matrix(1.00778 0 0 1.65614 135.3478 139.625)" gradientUnits="userSpaceOnUse">
      <stop stop-color="#900" offset="0%"/>
      <stop stop-color="#E80000" offset="100%"/>
    </linearGradient>
  </defs>
  <path d="M83.8839 5.4872c-.1292.5155-.1292 1.031 0 1.5465 0 0 1.6756 10.9605-.2584 15.8595L4.1988 229.5834c-5.6727 15.2148 1.934 32.1053 17.1489 37.9085 15.2148 5.8007 32.1065-1.6769 38.1669-16.7625l79.4267-206.6902c1.5464-3.9972 10.4438-11.8624 10.4438-11.8624.3875-.3875.7738-.7738 1.031-1.1601v-.1292c0-.1292.1291-.1292.1291-.2584 2.0632-5.2852-11.2177-15.3427-29.5266-22.434C102.7083 1.1025 86.0763-.316 84.013 5.0997c0 0-.1292.1292-.1292.3875z" opacity=".1"/>
  <path d="M217.0948 143.3638c-.1292.5168-.1292 1.0322 0 1.5477 0 0 1.6769 10.9593-.2584 15.8595L137.411 367.4612c-5.6714 15.2149 1.9353 32.1053 17.1502 37.9073 15.2148 5.802 32.1052-1.6756 38.1656-16.7613l79.4267-206.6902c1.5477-3.9972 10.4438-11.8623 10.4438-11.8623.3875-.3876.7751-.7739 1.0322-1.1602v-.1292c0-.1292.1292-.1292.1292-.2583 2.0632-5.2865-11.2177-15.3428-29.528-22.4354-18.3102-7.0913-34.9435-8.5098-37.0067-3.094 0 .1291 0 .2583-.1292.3875z" fill="url(#a)" transform="translate(-135.5325 -139.6826)"/>
  <path d="M242.11 236.8452l-57.3789 149.0542c-4.2542 10.7022-16.5041 16.2457-27.4634 11.9915-10.9606-4.2556-16.7625-16.7625-12.764-27.4647l36.6179-95.2862s4.5126-7.3497 13.5392-12.6349c9.0253-5.2878 16.375-4.1277 26.3033-8.5111 10.0562-4.3835 21.146-17.1488 21.146-17.1488z" fill="url(#b)" transform="translate(-135.5325 -139.6826)"/>
  <path d="M134.4015 24.5132c1.1433-2.983-7.0836-8.9348-18.3736-13.2938-11.2913-4.3589-21.3708-5.475-22.5128-2.4933-1.1434 2.983 7.0835 8.9335 18.3735 13.2937 11.2914 4.359 21.3708 5.4751 22.5129 2.4934z" fill="#333"/>
  <path d="M81.0288 5.2133s1.6653 10.9296-.2571 15.8156L1.8644 227.1365c-5.6354 15.1709 1.9223 32.0148 17.0377 37.8013 2.5618 1.0284 5.2516 1.6704 7.9414 1.7996a29.7592 29.7592 0 01-9.8638-33.9436L94.351 30.8009S83.7185 20.8997 81.0288 5.2134z" opacity=".3" fill="#fff"/>
  <g transform="translate(33.1209 134.947) scale(1.29191)" fill="#fff" opacity=".5">
    <ellipse cx="17.451" cy="2.488" rx="1.785" ry="1.791"/>
    <ellipse cx="29.052" cy="15.327" rx="2.677" ry="2.687"/>
    <ellipse cx="11.303" cy="30.653" rx="5.057" ry="5.076"/>
    <ellipse cx="3.173" cy="40.009" rx="2.677" ry="2.687"/>
    <ellipse cx="13.782" cy="59.913" rx="1.785" ry="1.791"/>
  </g>
</svg>
