<?xml version="1.0" encoding="UTF-8" standalone="no"?>
<svg
   xmlns:dc="http://purl.org/dc/elements/1.1/"
   xmlns:cc="http://creativecommons.org/ns#"
   xmlns:rdf="http://www.w3.org/1999/02/22-rdf-syntax-ns#"
   xmlns:svg="http://www.w3.org/2000/svg"
   xmlns="http://www.w3.org/2000/svg"
   xmlns:xlink="http://www.w3.org/1999/xlink"
   xmlns:sodipodi="http://sodipodi.sourceforge.net/DTD/sodipodi-0.dtd"
   xmlns:inkscape="http://www.inkscape.org/namespaces/inkscape"
   width="96"
   height="96"
   version="1.1"
   id="svg81"
   sodipodi:docname="ror.svg"
   inkscape:version="1.0.1 (3bc2e813f5, 2020-09-07)">
  <g
     id="g924"
     transform="translate(-1.4120998,33.81956)">
    <path
       d="m 87.48154,-4.5093923 c -0.01871,0.07474 -0.01871,0.147611 0,0.222351 0,0 0.242917,1.584481 -0.03742,2.292638 L 75.95664,27.901457 a 4.2638968,4.2638968 0 0 0 2.481342,5.482153 4.2919242,4.2919242 0 0 0 5.519531,-2.425301 L 95.445019,1.0643177 c 0.22422,-0.57923197 1.509741,-1.71527497 1.509741,-1.71527497 0.05612,-0.05605 0.112115,-0.112109 0.149487,-0.168164 v -0.01869 c 0,-0.01869 0.01871,-0.01869 0.01871,-0.03737 0.298953,-0.76421303 -1.621845,-2.21789903 -4.269501,-3.24370103 -2.649526,-1.027671 -5.054275,-1.231336 -5.353228,-0.448438 0,0 -0.01871,0.01869 -0.01871,0.05606 z"
       opacity="0.1"
       id="path27"
       style="stroke-width:0.186849" />
    <path
       d="m 87.147086,-4.7709803 c -0.01871,0.07474 -0.01871,0.149479 0,0.224219 0,0 0.242906,1.584481 -0.03741,2.292638 L 75.622212,27.639869 a 4.2638968,4.2638968 0 0 0 2.479494,5.482153 4.2919242,4.2919242 0 0 0 5.51952,-2.425302 L 95.110577,0.80459773 c 0.22422,-0.579233 1.511611,-1.717143 1.511611,-1.717143 0.05601,-0.05605 0.112104,-0.11211003 0.149476,-0.16816503 v -0.01869 c 0,-0.01869 0.01871,-0.01869 0.01871,-0.03736 0.298964,-0.764212 -1.623716,-2.217899 -4.27136,-3.2437 -2.647656,-1.025801 -5.056147,-1.231337 -5.353229,-0.448439 0,0.01869 0,0.03737 -0.01871,0.05606 z"
       fill="url(#b)"
       id="path29"
       style="fill:url(#b-3);stroke-width:0.186849" />
    <path
       d="M 90.764484,8.7475527 82.466518,30.306206 a 3.0867475,3.0867475 0 0 1 -3.972419,1.733959 c -1.586344,-0.616602 -2.425295,-2.423433 -1.846065,-3.972412 l 5.2953,-13.780123 c 0,0 0.653974,-1.06504 1.95818,-1.827385 1.306078,-0.76608 2.369249,-0.597916 3.804257,-1.233203 1.455553,-0.633418 3.058713,-2.4794893 3.058713,-2.4794893 z"
       fill="url(#c)"
       id="path31"
       style="fill:url(#c-5);stroke-width:0.186849" />
    <path
       d="m 94.787348,-1.7589713 c 0.168162,-0.431623 -1.023929,-1.292997 -2.656999,-1.924547 -1.633059,-0.629681 -3.090483,-0.790372 -3.254915,-0.35875 -0.166291,0.429753 1.02394,1.291126 2.656999,1.922677 1.63307,0.629682 3.090483,0.79224 3.256785,0.36062 z"
       fill="#333333"
       id="path33"
       style="stroke-width:0.186849" />
    <path
       d="m 87.070472,-4.5504983 c 0,0 0.239175,1.580743 -0.03742,2.287033 L 75.620338,27.546445 a 4.256423,4.256423 0 0 0 2.462678,5.467202 c 0.371825,0.149481 0.760466,0.242906 1.149118,0.261592 A 4.3050037,4.3050037 0 0 1 77.806473,28.364844 L 88.995,-0.84901827 c 0,0 -1.537769,-1.43313103 -1.928281,-3.70148003 z"
       opacity="0.3"
       fill="#ffffff"
       id="path35"
       style="stroke-width:0.186849" />
    <g
       transform="matrix(0.18684912,0,0,0.18684912,80.140253,14.212891)"
       fill="#ffffff"
       opacity="0.5"
       id="g47">
      <ellipse
         cx="17.450001"
         cy="2.49"
         rx="1.78"
         ry="1.79"
         id="ellipse37" />
      <ellipse
         cx="29.049999"
         cy="15.33"
         rx="2.6800001"
         ry="2.6900001"
         id="ellipse39" />
      <ellipse
         cx="11.3"
         cy="30.65"
         rx="5.0599999"
         ry="5.0799999"
         id="ellipse41" />
      <ellipse
         cx="3.1700001"
         cy="40.009998"
         rx="2.6800001"
         ry="2.6900001"
         id="ellipse43" />
      <ellipse
         cx="13.78"
         cy="59.91"
         rx="1.78"
         ry="1.79"
         id="ellipse45" />
    </g>
    <path
       d="m 24.171458,12.837681 c 0.502624,0.4092 1.416317,0.168165 2.03105,-0.504492 0.653972,-0.704422 0.747396,-1.616245 0.242904,-2.025444 -0.504492,-0.4092013 -1.416317,-0.168165 -2.032919,0.539993 -0.653972,0.70629 -0.764213,1.599428 -0.242903,1.989943 z m -1.511609,1.319155 c -0.130795,0 -0.373698,0.242904 -0.168164,0.336328 0.280273,0.09156 0.411068,0.332592 0.411068,0.668921 -0.242904,1.393893 -1.976864,2.974637 -2.647652,3.512762 -0.168164,0.168165 0.07474,0.541863 0.242903,0.411069 0.37183,-0.298959 1.154728,-0.911824 1.788147,-1.730224 -1.042618,2.324404 -3.094222,5.336411 -3.87712,6.397715 -3.058719,4.220921 -7.701921,8.107383 -10.8933062,8.107383 -2.5523574,0 -4.7160719,-1.730223 -5.1831934,-4.26016 -0.037361,-0.278405 -0.4110681,-0.332591 -0.3363299,0.03737 0.5792358,3.479132 3.2642566,4.835655 6.5098251,4.835655 3.5613454,0 7.7392924,-2.565437 10.0524844,-5.205615 3.72764,-4.260161 6.134257,-9.168687 5.500838,-11.939659 -0.261589,-1.022065 -0.9903,-1.190229 -1.3995,-1.171545 z m 22.918913,9.278927 c 0.9903,-0.241035 1.790013,-0.781029 1.790013,-1.634929 0,-0.09343 -0.168163,-0.09343 -0.168163,0 0,0.500756 -0.577364,0.928639 -1.229467,1.022064 -1.530293,0.242904 -4.551644,-1.543374 -5.96796,-3.383837 1.528426,0.575495 4.643201,-0.261589 6.117441,-1.321024 1.360259,-0.986563 1.902123,-2.064683 1.995547,-2.939136 0.168162,-1.449949 -1.420055,-2.305719 -3.637954,-1.449949 -1.416316,0.577364 -3.112904,1.823647 -4.886103,4.166735 1.864756,-3.069931 5.540077,-8.0905673 9.136921,-11.2894243 4.383481,-3.886461 6.920892,-3.142803 2.985851,0.986563 -1.62372,1.692853 -4.680572,3.8864623 -6.788229,4.8356563 -0.653974,0.278405 -0.33633,0.650234 0.130795,0.4447 2.236582,-0.984695 5.220562,-3.0120073 7.029264,-4.7048603 5.33454,-5.112193 0.87819,-8.96315297 -5.016902,-3.550134 -4.007913,3.680928 -6.620062,7.5300203 -8.894016,12.5319713 -0.784767,0.949194 -1.362131,1.730222 -2.070288,2.324403 -0.09343,0.07474 -0.14948,0.149479 -0.205534,0.224219 -1.95818,1.674167 -5.035585,3.942516 -6.956392,3.961201 -1.360262,0.03737 -1.939495,-0.986563 -1.696591,-2.305717 0.373698,-2.064684 2.518726,-4.501196 4.34611,-5.33828 2.367378,-1.078119 3.766878,1.023933 0.652104,2.696232 -1.193966,0.614734 -2.610282,0.949194 -3.189515,0.949194 -0.670788,0 -0.614733,0.280273 -0.03737,0.298958 0.952931,0.03737 2.481356,-0.373697 3.488473,-0.838951 3.187647,-1.52469 3.39318,-4.368533 -0.07474,-4.461958 -3.766878,-0.130794 -8.281154,3.068062 -8.243783,7.104003 0.03737,1.82178 1.492924,2.806475 3.488472,2.806475 3.337126,-0.03737 6.302421,-2.565439 8.74454,-4.796417 0.355013,-0.298959 0.691342,-0.614734 1.02767,-0.949194 -0.859506,2.158108 -1.289259,4.166736 -1.083725,5.654054 0.130795,1.07812 0.747397,1.580744 1.233205,1.989943 0.09342,0.07474 0.298958,0 0.168163,-0.205534 -0.710026,-0.837083 -0.504492,-3.346468 0.465255,-5.78298 0.820267,1.636798 4.009783,3.699613 7.346908,2.955953 z m -4.009784,-7.047948 c 3.897674,-3.475395 5.42797,-0.37183 2.946612,1.526556 -1.28552,0.984696 -3.841616,1.728355 -4.6432,1.244416 l -0.168165,-0.09343 c -0.09343,-0.166295 -0.205534,-0.334459 -0.280273,-0.500755 0.653972,-0.799715 1.40137,-1.506005 2.145026,-2.176793 z m 21.670756,-3.961202 c 1.565809,0.168164 0.913695,-1.728355 -0.672649,-1.244415 -0.708161,0.205533 -1.397636,1.562058 -1.902122,2.733603 -1.5658,2.324403 -4.176081,5.504575 -6.003466,7.176874 -1.623718,1.395763 -3.114776,1.767593 -1.289259,-0.837083 0.747398,-1.04075 1.700327,-2.156239 2.240321,-3.271729 1.285522,-2.808342 -1.455555,-4.054625 -3.675322,-2.361773 -1.285519,0.984695 -3.01948,3.012008 -4.38161,4.129365 -0.373701,0.297091 -0.280277,0.741791 0.09343,0.444702 1.081857,-0.872585 2.98398,-2.881214 4.624515,-4.054626 1.36213,-1.04075 1.902123,-0.369961 1.119224,0.504492 -1.081856,1.244415 -2.983979,3.419339 -3.467919,4.796417 -0.672655,2.064683 0.130796,2.974638 1.491058,2.974638 1.864752,0 4.643201,-2.899898 6.507953,-5.205616 0.616604,-0.781029 1.287392,-1.692853 1.864756,-2.567307 -1.621853,3.142802 -3.318444,6.322975 -5.426101,9.206056 -2.983979,4.054626 -6.713486,7.104003 -10.258016,7.104003 -2.554225,0 -4.75344,-1.730222 -5.220564,-4.26016 -0.03737,-0.278404 -0.373697,-0.33446 -0.336329,0.03737 0.579234,3.477263 3.264255,4.835655 6.509825,4.835655 3.561345,0 6.991893,-2.064682 9.398509,-4.592751 4.848737,-5.11406 5.426101,-10.859671 6.919027,-14.077211 0.70815,-1.468635 1.341579,-1.52469 1.86474,-1.468635 z m 19.72941,-4.9085263 c 0.710021,-1.208915 0.672649,-2.156239 -0.988438,-2.156239 -1.25002,0.03737 -3.523979,0.909956 -4.587139,1.728355 -0.242917,0.242902 -0.130802,0.373697 0.168162,0.242902 0.205523,-0.07474 0.44844,-0.205533 0.670789,-0.298958 1.193962,-0.650234 0.710021,0.708158 0.44844,1.208914 -1.418193,2.4738833 -3.935047,5.9511453 -5.25981,7.6794993 a 26.285935,26.285935 0 0 1 -2.032913,2.417828 c -1.268706,1.208913 -3.785571,3.348336 -5.706379,4.054626 -6.173493,2.305718 1.696588,-8.183992 2.350562,-9.037892 1.453683,-1.821779 4.717941,-5.0019513 5.70638,-6.6013793 0.70815,-1.208914 0.670778,-2.15624 -0.990299,-2.15624 -1.24816,0.03737 -3.523979,0.909955 -4.58715,1.728355 -0.242906,0.242904 -0.13079,0.373698 0.168162,0.242904 0.205534,-0.07474 0.44844,-0.205534 0.67266,-0.298958 1.192091,-0.650236 0.70815,0.706289 0.44844,1.208912 -1.420052,2.473882 -3.936918,5.9511453 -5.25981,7.6795003 -1.083728,1.451818 -2.40662,2.901766 -3.432413,3.718297 -0.411073,0.336329 -0.168164,0.653972 0.242899,0.373698 0.373707,-0.242903 0.913695,-0.781029 1.528426,-1.412579 -1.117358,2.230978 -2.031047,5.373781 0.915566,5.745611 2.516854,0.334459 5.500834,-2.212295 7.440329,-4.110681 l 0.689475,-0.687605 0.168162,-0.168164 c -1.121089,2.232847 -2.032924,5.375648 0.913695,5.747479 3.225004,0.44657 7.234795,-3.886462 8.781907,-5.485891 0.298953,-0.298958 0.205534,-0.818399 -0.298963,-0.298958 -0.911814,0.949194 -4.007909,3.757535 -6.246367,4.59462 -6.171624,2.305718 1.698459,-8.183991 2.350562,-9.037892 1.47238,-1.859149 4.736627,-5.0393213 5.725065,-6.6200643 z"
       opacity="0.1"
       fill="url(#d)"
       id="path49"
       style="fill:url(#d-6);stroke-width:0.186849" />
    <path
       d="m 23.835129,12.520037 c 0.504494,0.411069 1.416317,0.168164 2.032919,-0.500755 0.652103,-0.708159 0.745528,-1.618113 0.242905,-2.0273133 -0.504494,-0.411068 -1.420054,-0.168164 -2.032919,0.5381253 -0.653973,0.708159 -0.747397,1.580744 -0.242905,1.989943 z m -1.492924,1.321024 c -0.130795,0 -0.373697,0.242904 -0.168163,0.336329 0.280273,0.09156 0.411068,0.33259 0.411068,0.667051 -0.242905,1.395763 -1.976864,2.976506 -2.647652,3.514632 -0.168165,0.168163 0.07474,0.539994 0.242902,0.411068 0.3737,-0.298959 1.154728,-0.911824 1.790016,-1.730223 -1.046355,2.324403 -3.096091,5.336411 -3.878988,6.395845 -3.05872,4.22279 -7.701922,8.109252 -10.8914354,8.109252 -2.5542292,0 -4.7179394,-1.730224 -5.1831933,-4.26016 -0.037372,-0.278405 -0.4110693,-0.33446 -0.3363311,0.03736 0.5792315,3.477263 3.2642533,4.835656 6.5079554,4.835656 3.5632124,0 7.7392914,-2.565439 10.0524834,-5.207486 3.729509,-4.258291 6.134257,-9.166817 5.500838,-11.93779 -0.280273,-1.040749 -0.9903,-1.208914 -1.3995,-1.171544 z m 22.900227,9.278927 c 0.9903,-0.242904 1.791884,-0.78103 1.791884,-1.636798 0,-0.09342 -0.168162,-0.09342 -0.168162,0 0,0.504493 -0.579233,0.930509 -1.231339,1.023933 -1.528426,0.242904 -4.549773,-1.543374 -5.967959,-3.385705 1.530296,0.577363 4.6432,-0.259721 6.11744,-1.319156 1.36213,-0.986563 1.902123,-2.064682 1.995547,-2.939136 0.168167,-1.44995 -1.418183,-2.305718 -3.636082,-1.44995 -1.418184,0.577364 -3.114776,1.821779 -4.886105,4.166735 1.864753,-3.069931 5.538207,-8.0905673 9.136923,-11.2894223 4.38348,-3.886463 6.919021,-3.142803 2.98398,0.986562 -1.62185,1.690985 -4.680569,3.8864623 -6.78823,4.8337873 -0.653971,0.280274 -0.336327,0.652104 0.130796,0.448438 2.238452,-0.986563 5.222433,-3.0138763 7.03113,-4.7067303 5.332675,-5.114061 0.876324,-8.963151 -5.016897,-3.550133 -4.009781,3.662243 -6.620063,7.5300203 -8.894018,12.5319713 -0.784767,0.949194 -1.363998,1.730223 -2.072157,2.324403 -0.09343,0.07474 -0.149479,0.14948 -0.205534,0.224219 -1.956311,1.672299 -5.033715,3.942516 -6.954524,3.961202 -1.36213,0.03737 -1.939494,-0.986565 -1.696589,-2.305719 0.373697,-2.064682 2.516856,-4.501195 4.34424,-5.33828 2.369248,-1.078119 3.766878,1.023933 0.653973,2.696234 -1.195834,0.614733 -2.612151,0.949192 -3.189515,0.949192 -0.672656,0 -0.616602,0.280275 -0.03737,0.29896 0.951063,0.0355 2.479489,-0.373699 3.486606,-0.838953 3.189514,-1.524689 3.395048,-4.370401 -0.07474,-4.461956 -3.766878,-0.130795 -8.279285,3.068062 -8.241915,7.102134 0.03737,1.823647 1.491057,2.808342 3.486604,2.808342 3.338994,-0.03737 6.304289,-2.565438 8.746407,-4.796417 a 16.386668,16.386668 0 0 0 1.025803,-0.949192 c -0.859507,2.156238 -1.287391,4.166734 -1.081857,5.652185 0.130795,1.079988 0.747397,1.580743 1.231336,1.989942 0.09343,0.07474 0.298958,0 0.168164,-0.203664 -0.710026,-0.837085 -0.504493,-3.348337 0.467123,-5.78298 0.837084,1.636798 4.026599,3.699612 7.345037,2.955952 z m -4.007913,-7.066634 c 3.897674,-3.475394 5.4261,-0.37183 2.946613,1.524689 -1.289259,0.986564 -3.841621,1.730224 -4.64507,1.246284 l -0.168164,-0.09343 c -0.09343,-0.168164 -0.205536,-0.33446 -0.280275,-0.500756 a 21.525019,21.525019 0 0 1 2.146896,-2.176792 z M 62.90341,12.110838 c 1.565798,0.168164 0.913695,-1.728354 -0.672649,-1.244415 -0.708161,0.205534 -1.397634,1.562059 -1.900259,2.733603 -1.567667,2.324402 -4.177947,5.504574 -6.005332,7.176875 -1.621852,1.395762 -3.114774,1.767593 -1.287391,-0.837085 0.747395,-1.040749 1.696589,-2.156238 2.238454,-3.271727 1.287393,-2.808343 -1.455555,-4.054627 -3.673455,-2.361773 -1.287391,0.984694 -3.021351,3.012007 -4.38348,4.129365 -0.373698,0.295222 -0.280274,0.741791 0.09343,0.4447 1.083724,-0.874453 2.98398,-2.883081 4.624516,-4.054625 1.36213,-1.04075 1.902122,-0.371829 1.121095,0.504493 -1.083724,1.244415 -2.985851,3.419339 -3.469787,4.796416 -0.67266,2.064682 0.130791,2.974639 1.491054,2.974639 1.864756,0 4.643201,-2.899899 6.507956,-5.205617 0.616603,-0.78103 1.289258,-1.692853 1.864755,-2.567307 -1.621853,3.142802 -3.318441,6.322974 -5.426098,9.206056 -2.983983,4.054625 -6.713491,7.102134 -10.25615,7.102134 -2.554229,0 -4.75531,-1.728353 -5.222434,-4.25829 -0.03737,-0.278406 -0.373697,-0.33446 -0.336327,0.03737 0.579232,3.477262 3.264252,4.835655 6.509824,4.835655 3.561343,0 6.993762,-2.064682 9.398511,-4.592751 4.848729,-5.11406 5.426093,-10.86154 6.919017,-14.077213 0.710021,-1.470502 1.360264,-1.543373 1.864762,-1.470502 z M 82.63468,7.1836267 c 0.70815,-1.208914 0.670789,-2.156239 -0.990299,-2.156239 -1.248159,0.03737 -3.523978,0.909955 -4.58715,1.728355 -0.242895,0.242903 -0.13079,0.373698 0.168173,0.242903 0.205534,-0.07474 0.448429,-0.205534 0.672649,-0.298959 1.192102,-0.650235 0.708161,0.70629 0.44657,1.208914 -1.418182,2.4738833 -3.935047,5.9511453 -5.25981,7.6794993 a 26.285935,26.285935 0 0 1 -2.032914,2.417828 c -1.266834,1.208914 -3.785559,3.348337 -5.706368,4.054626 -6.171629,2.305718 1.69846,-8.183992 2.350563,-9.037892 1.453683,-1.821779 4.717929,-5.0019513 5.706368,-6.6013803 0.710032,-1.208914 0.67266,-2.156239 -0.988439,-2.156239 -1.250008,0.03736 -3.523967,0.909956 -4.587139,1.728355 -0.242895,0.242904 -0.13079,0.373698 0.168163,0.242904 0.205545,-0.07474 0.44844,-0.205534 0.670789,-0.298959 1.193972,-0.650235 0.710031,0.70629 0.44844,1.208914 -1.418182,2.473882 -3.935047,5.9511453 -5.259799,7.6794993 -1.081858,1.451818 -2.406621,2.901766 -3.43055,3.718297 -0.411067,0.336328 -0.168171,0.653973 0.242903,0.373698 0.371829,-0.242904 0.911817,-0.781029 1.528419,-1.412579 -1.121089,2.230978 -2.032911,5.373781 0.913695,5.745611 2.516865,0.33446 5.500845,-2.214162 7.440339,-4.110682 l 0.691335,-0.687604 0.168163,-0.168164 c -1.121089,2.232847 -2.034784,5.375649 0.911824,5.747479 3.226886,0.446569 7.236676,-3.886461 8.783778,-5.485891 0.298963,-0.298958 0.205534,-0.818399 -0.298953,-0.298958 -0.913695,0.949194 -4.00792,3.757536 -6.246367,4.59462 -6.173494,2.305719 1.696589,-8.183992 2.348692,-9.037892 1.492925,-1.859148 4.736626,-5.0393203 5.725054,-6.6200643 z"
       fill="url(#e)"
       id="path51"
       style="fill:url(#e-3);stroke-width:0.186849" />
  </g>
  <metadata
     id="metadata85">
    <rdf:RDF>
      <cc:Work
         rdf:about="">
        <dc:format>image/svg+xml</dc:format>
        <dc:type
           rdf:resource="http://purl.org/dc/dcmitype/StillImage" />
      </cc:Work>
    </rdf:RDF>
  </metadata>
  <sodipodi:namedview
     pagecolor="#ffffff"
     bordercolor="#666666"
     borderopacity="1"
     objecttolerance="10"
     gridtolerance="10"
     guidetolerance="10"
     inkscape:pageopacity="0"
     inkscape:pageshadow="2"
     inkscape:window-width="640"
     inkscape:window-height="480"
     id="namedview83"
     showgrid="false"
     inkscape:zoom="4"
     inkscape:cx="38.082925"
     inkscape:cy="34.633423"
     inkscape:current-layer="svg81"
     inkscape:document-rotation="0" />
  <defs
     id="defs29">
    <filter
       height="1.16"
       y="-.08"
       width="1.14"
       x="-.07"
       id="i"
       color-interpolation-filters="sRGB">
      <feGaussianBlur
         stdDeviation="3.67"
         id="feGaussianBlur2" />
    </filter>
    <filter
       color-interpolation-filters="sRGB"
       id="h"
       x="-.19"
       width="1.37"
       y="-.18"
       height="1.37">
      <feGaussianBlur
         stdDeviation=".59"
         id="feGaussianBlur5" />
    </filter>
    <filter
       color-interpolation-filters="sRGB"
       id="g"
       x="-.3"
       width="1.61"
       y="-.3"
       height="1.6">
      <feGaussianBlur
         stdDeviation=".97"
         id="feGaussianBlur8" />
    </filter>
    <filter
       color-interpolation-filters="sRGB"
       id="f"
       x="-.25"
       width="1.5"
       y="-.25"
       height="1.49">
      <feGaussianBlur
         stdDeviation=".8"
         id="feGaussianBlur11" />
    </filter>
    <filter
       height="1.16"
       y="-.08"
       width="1.14"
       x="-.07"
       id="e"
       color-interpolation-filters="sRGB">
      <feGaussianBlur
         stdDeviation="3.67"
         id="feGaussianBlur14" />
    </filter>
    <filter
       height="1.19"
       y="-.09"
       width="1.13"
       x="-.06"
       id="d"
       color-interpolation-filters="sRGB">
      <feGaussianBlur
         stdDeviation="2.13"
         id="feGaussianBlur17" />
    </filter>
    <filter
       color-interpolation-filters="sRGB"
       id="c"
       x="-.13"
       width="1.25"
       y="-.09"
       height="1.19">
      <feGaussianBlur
         stdDeviation="1.42"
         id="feGaussianBlur20" />
    </filter>
    <filter
       color-interpolation-filters="sRGB"
       id="b"
       x="-.13"
       width="1.25"
       y="-.09"
       height="1.19">
      <feGaussianBlur
         stdDeviation="1.42"
         id="feGaussianBlur23" />
    </filter>
    <filter
       color-interpolation-filters="sRGB"
       id="a"
       x="-.06"
       width="1.12"
       y="-.04"
       height="1.08">
      <feGaussianBlur
         stdDeviation="3.94"
         id="feGaussianBlur26" />
    </filter>
    <linearGradient
       x1="133.52187"
       y1="327.56169"
       x2="133.52187"
       y2="60.949662"
       id="e-3"
       gradientTransform="matrix(0.30488663,0,0,0.11451008,1.6617456,-5.3128423)"
       gradientUnits="userSpaceOnUse">
      <stop
         stop-color="#646464"
         offset="0%"
         id="stop17" />
      <stop
         stop-color="#77777b"
         offset="40.26%"
         id="stop19" />
      <stop
         stop-color="#b5b5b5"
         offset="100%"
         id="stop21" />
    </linearGradient>
    <linearGradient
       xlink:href="#a-7"
       id="d-6"
       x1="1.74"
       y1="120.92"
       x2="437.48999"
       y2="120.92"
       gradientUnits="userSpaceOnUse"
       gradientTransform="matrix(0.18684912,0,0,0.18684912,1.6617456,-5.3128423)" />
    <linearGradient
       id="a-7">
      <stop
         offset="0"
         id="stop2" />
      <stop
         offset="1"
         stop-opacity="0"
         id="stop4" />
    </linearGradient>
    <linearGradient
       x1="33.758097"
       y1="100.28009"
       x2="73.68694"
       y2="109.62952"
       id="c-5"
       gradientTransform="matrix(0.14576236,0,0,0.23951719,75.323271,-5.3128423)"
       gradientUnits="userSpaceOnUse">
      <stop
         stop-color="#900"
         offset="0%"
         id="stop12" />
      <stop
         stop-color="#E80000"
         offset="100%"
         id="stop14" />
    </linearGradient>
    <linearGradient
       x1="37.168121"
       y1="71.065185"
       x2="106.31971"
       y2="85.815051"
       id="b-3"
       gradientTransform="matrix(0.13915455,0,0,0.25089075,75.323271,-5.3128423)"
       gradientUnits="userSpaceOnUse">
      <stop
         stop-color="#919191"
         offset="0%"
         id="stop7" />
      <stop
         stop-color="#FFF"
         offset="100%"
         id="stop9" />
    </linearGradient>
  </defs>
</svg>
