<svg xmlns="http://www.w3.org/2000/svg" xmlns:xlink="http://www.w3.org/1999/xlink" width="2500" height="1021" viewBox="0 0 512 209" preserveAspectRatio="xMidYMid">
  <defs>
    <linearGradient id="a">
      <stop offset="0"/>
      <stop offset="1" stop-opacity="0"/>
    </linearGradient>
    <linearGradient x1="23.96%" y1="46.04%" x2="68.78%" y2="55.6%" id="b">
      <stop stop-color="#919191" offset="0%"/>
      <stop stop-color="#FFF" offset="100%"/>
    </linearGradient>
    <linearGradient x1="26.43%" y1="42.38%" x2="67.13%" y2="51.91%" id="c">
      <stop stop-color="#900" offset="0%"/>
      <stop stop-color="#E80000" offset="100%"/>
    </linearGradient>
    <linearGradient x1="50%" y1="99.82%" x2="50%" y2="-.04%" id="e">
      <stop stop-color="#646464" offset="0%"/>
      <stop stop-color="#77777b" offset="40.26%"/>
      <stop stop-color="#b5b5b5" offset="100%"/>
    </linearGradient>
    <linearGradient xlink:href="#a" id="d" x1="1.74" y1="120.92" x2="437.49" y2="120.92" gradientUnits="userSpaceOnUse"/>
  </defs>
  <path d="M459.3 4.3c-.1.4-.1.79 0 1.19 0 0 1.3 8.48-.2 12.27l-61.48 160a22.82 22.82 0 0013.28 29.34 22.97 22.97 0 0029.54-12.98l61.48-159.99c1.2-3.1 8.08-9.18 8.08-9.18.3-.3.6-.6.8-.9v-.1c0-.1.1-.1.1-.2 1.6-4.09-8.68-11.87-22.85-17.36C473.87.89 461-.2 459.4 3.99c0 0-.1.1-.1.3z" opacity=".1"/>
  <path d="M63.28 2.9c-.1.4-.1.8 0 1.2 0 0 1.3 8.48-.2 12.27L1.6 176.36a22.82 22.82 0 0013.27 29.34 22.97 22.97 0 0029.54-12.98L105.9 32.74c1.2-3.1 8.09-9.19 8.09-9.19.3-.3.6-.6.8-.9v-.1c0-.1.1-.1.1-.2 1.6-4.09-8.69-11.87-22.86-17.36S64.97-1.6 63.38 2.59c0 .1 0 .2-.1.3z" fill="url(#b)" transform="translate(394.23)"/>
  <path d="M82.64 75.25L38.23 190.63a16.52 16.52 0 01-21.26 9.28c-8.49-3.3-12.98-12.97-9.88-21.26l28.34-73.75s3.5-5.7 10.48-9.78c6.99-4.1 12.68-3.2 20.36-6.6 7.79-3.39 16.37-13.27 16.37-13.27z" fill="url(#c)" transform="translate(394.23)"/>
  <path d="M498.4 19.02c.9-2.31-5.48-6.92-14.22-10.3-8.74-3.37-16.54-4.23-17.42-1.92-.89 2.3 5.48 6.91 14.22 10.29 8.74 3.37 16.54 4.24 17.43 1.93z" fill="#333"/>
  <path d="M457.1 4.08s1.28 8.46-.2 12.24l-61.08 159.54A22.78 22.78 0 00409 205.12c1.99.8 4.07 1.3 6.15 1.4a23.04 23.04 0 01-7.63-26.28L467.4 23.89s-8.23-7.67-10.32-19.81z" opacity=".3" fill="#FFF"/>
  <g transform="translate(420.01 104.5)" fill="#FFF" opacity=".5">
    <ellipse cx="17.45" cy="2.49" rx="1.78" ry="1.79"/>
    <ellipse cx="29.05" cy="15.33" rx="2.68" ry="2.69"/>
    <ellipse cx="11.3" cy="30.65" rx="5.06" ry="5.08"/>
    <ellipse cx="3.17" cy="40.01" rx="2.68" ry="2.69"/>
    <ellipse cx="13.78" cy="59.91" rx="1.78" ry="1.79"/>
  </g>
  <path d="M120.47 97.14c2.69 2.19 7.58.9 10.87-2.7 3.5-3.77 4-8.65 1.3-10.84-2.7-2.19-7.58-.9-10.88 2.89-3.5 3.78-4.09 8.56-1.3 10.65zm-8.09 7.06c-.7 0-2 1.3-.9 1.8 1.5.49 2.2 1.78 2.2 3.58-1.3 7.46-10.58 15.92-14.17 18.8-.9.9.4 2.9 1.3 2.2 1.99-1.6 6.18-4.88 9.57-9.26-5.58 12.44-16.56 28.56-20.75 34.24-16.37 22.59-41.22 43.39-58.3 43.39-13.66 0-25.24-9.26-27.74-22.8-.2-1.49-2.2-1.78-1.8.2 3.1 18.62 17.47 25.88 34.84 25.88 19.06 0 41.42-13.73 53.8-27.86 19.95-22.8 32.83-49.07 29.44-63.9-1.4-5.47-5.3-6.37-7.49-6.27zm122.66 49.66c5.3-1.29 9.58-4.18 9.58-8.75 0-.5-.9-.5-.9 0 0 2.68-3.09 4.97-6.58 5.47-8.19 1.3-24.36-8.26-31.94-18.11 8.18 3.08 24.85-1.4 32.74-7.07 7.28-5.28 10.18-11.05 10.68-15.73.9-7.76-7.6-12.34-19.47-7.76-7.58 3.09-16.66 9.76-26.15 22.3 9.98-16.43 29.65-43.3 48.9-60.42 23.46-20.8 37.04-16.82 15.98 5.28-8.69 9.06-25.05 20.8-36.33 25.88-3.5 1.49-1.8 3.48.7 2.38 11.97-5.27 27.94-16.12 37.62-25.18 28.55-27.36 4.7-47.97-26.85-19-21.45 19.7-35.43 40.3-47.6 67.07-4.2 5.08-7.29 9.26-11.08 12.44-.5.4-.8.8-1.1 1.2-10.48 8.96-26.95 21.1-37.23 21.2-7.28.2-10.38-5.28-9.08-12.34 2-11.05 13.48-24.09 23.26-28.57 12.67-5.77 20.16 5.48 3.49 14.43-6.39 3.29-13.97 5.08-17.07 5.08-3.59 0-3.29 1.5-.2 1.6 5.1.2 13.28-2 18.67-4.49 17.06-8.16 18.16-23.38-.4-23.88-20.16-.7-44.32 16.42-44.12 38.02.2 9.75 7.99 15.02 18.67 15.02 17.86-.2 33.73-13.73 46.8-25.67 1.9-1.6 3.7-3.29 5.5-5.08-4.6 11.55-6.9 22.3-5.8 30.26.7 5.77 4 8.46 6.6 10.65.5.4 1.6 0 .9-1.1-3.8-4.48-2.7-17.91 2.49-30.95 4.39 8.76 21.46 19.8 39.32 15.82zm-21.46-37.72c20.86-18.6 29.05-1.99 15.77 8.17-6.88 5.27-20.56 9.25-24.85 6.66l-.9-.5c-.5-.89-1.1-1.79-1.5-2.68 3.5-4.28 7.5-8.06 11.48-11.65zm115.98-21.2c8.38.9 4.89-9.25-3.6-6.66-3.79 1.1-7.48 8.36-10.18 14.63-8.38 12.44-22.35 29.46-32.13 38.41-8.69 7.47-16.67 9.46-6.9-4.48 4-5.57 9.1-11.54 11.99-17.51 6.88-15.03-7.79-21.7-19.67-12.64-6.88 5.27-16.16 16.12-23.45 22.1-2 1.59-1.5 3.97.5 2.38 5.79-4.67 15.97-15.42 24.75-21.7 7.29-5.57 10.18-1.98 5.99 2.7-5.79 6.66-15.97 18.3-18.56 25.67-3.6 11.05.7 15.92 7.98 15.92 9.98 0 24.85-15.52 34.83-27.86 3.3-4.18 6.89-9.06 9.98-13.74-8.68 16.82-17.76 33.84-29.04 49.27-15.97 21.7-35.93 38.02-54.9 38.02-13.67 0-25.44-9.26-27.94-22.8-.2-1.49-2-1.79-1.8.2 3.1 18.61 17.47 25.88 34.84 25.88 19.06 0 37.42-11.05 50.3-24.58 25.95-27.37 29.04-58.12 37.03-75.34 3.79-7.86 7.18-8.16 9.98-7.86zm105.59-26.27c3.8-6.47 3.6-11.54-5.29-11.54-6.69.2-18.86 4.87-24.55 9.25-1.3 1.3-.7 2 .9 1.3 1.1-.4 2.4-1.1 3.59-1.6 6.39-3.48 3.8 3.79 2.4 6.47-7.59 13.24-21.06 31.85-28.15 41.1a140.68 140.68 0 01-10.88 12.94c-6.79 6.47-20.26 17.92-30.54 21.7-33.04 12.34 9.08-43.8 12.58-48.37 7.78-9.75 25.25-26.77 30.54-35.33 3.79-6.47 3.59-11.54-5.3-11.54-6.68.2-18.86 4.87-24.55 9.25-1.3 1.3-.7 2 .9 1.3 1.1-.4 2.4-1.1 3.6-1.6 6.38-3.48 3.79 3.78 2.4 6.47-7.6 13.24-21.07 31.85-28.15 41.1-5.8 7.77-12.88 15.53-18.37 19.9-2.2 1.8-.9 3.5 1.3 2 2-1.3 4.89-4.18 8.18-7.56-5.98 11.94-10.87 28.76 4.9 30.75 13.47 1.79 29.44-11.84 39.82-22l3.69-3.68.9-.9c-6 11.95-10.88 28.77 4.89 30.76 17.26 2.39 38.72-20.8 47-29.36 1.6-1.6 1.1-4.38-1.6-1.6-4.88 5.08-21.45 20.11-33.43 24.59-33.03 12.34 9.09-43.8 12.58-48.37 7.88-9.95 25.35-26.97 30.64-35.43z" opacity=".1" fill="url(#d)"/>
  <path d="M118.67 95.44c2.7 2.2 7.58.9 10.88-2.68 3.49-3.79 3.99-8.66 1.3-10.85-2.7-2.2-7.6-.9-10.88 2.88-3.5 3.79-4 8.46-1.3 10.65zm-7.99 7.07c-.7 0-2 1.3-.9 1.8 1.5.49 2.2 1.78 2.2 3.57-1.3 7.47-10.58 15.93-14.17 18.81-.9.9.4 2.89 1.3 2.2 2-1.6 6.18-4.88 9.58-9.26-5.6 12.44-16.57 28.56-20.76 34.23-16.37 22.6-41.22 43.4-58.29 43.4-13.67 0-25.25-9.26-27.74-22.8-.2-1.49-2.2-1.79-1.8.2 3.1 18.61 17.47 25.88 34.83 25.88 19.07 0 41.42-13.73 53.8-27.87 19.96-22.79 32.83-49.06 29.44-63.89-1.5-5.57-5.3-6.47-7.49-6.27zm122.56 49.66c5.3-1.3 9.59-4.18 9.59-8.76 0-.5-.9-.5-.9 0 0 2.7-3.1 4.98-6.59 5.48-8.18 1.3-24.35-8.26-31.94-18.12 8.19 3.09 24.85-1.39 32.74-7.06 7.29-5.28 10.18-11.05 10.68-15.73.9-7.76-7.59-12.34-19.46-7.76-7.59 3.09-16.67 9.75-26.15 22.3 9.98-16.43 29.64-43.3 48.9-60.42 23.46-20.8 37.03-16.82 15.97 5.28-8.68 9.05-25.05 20.8-36.33 25.87-3.5 1.5-1.8 3.49.7 2.4 11.98-5.28 27.95-16.13 37.63-25.19 28.54-27.37 4.69-47.97-26.85-19-21.46 19.6-35.43 40.3-47.6 67.07-4.2 5.08-7.3 9.26-11.09 12.44-.5.4-.8.8-1.1 1.2-10.47 8.95-26.94 21.1-37.22 21.2-7.29.2-10.38-5.28-9.08-12.34 2-11.05 13.47-24.09 23.25-28.57 12.68-5.77 20.16 5.48 3.5 14.43-6.4 3.29-13.98 5.08-17.07 5.08-3.6 0-3.3 1.5-.2 1.6 5.09.19 13.27-2 18.66-4.49 17.07-8.16 18.17-23.39-.4-23.88-20.16-.7-44.31 16.42-44.11 38.01.2 9.76 7.98 15.03 18.66 15.03 17.87-.2 33.74-13.73 46.81-25.67a87.7 87.7 0 005.49-5.08c-4.6 11.54-6.89 22.3-5.79 30.25.7 5.78 4 8.46 6.59 10.65.5.4 1.6 0 .9-1.09-3.8-4.48-2.7-17.92 2.5-30.95 4.48 8.76 21.55 19.8 39.31 15.82zm-21.45-37.82c20.86-18.6 29.04-1.99 15.77 8.16-6.9 5.28-20.56 9.26-24.86 6.67l-.9-.5c-.5-.9-1.1-1.79-1.5-2.68a115.2 115.2 0 0111.49-11.65zm115.97-21.1c8.38.9 4.89-9.25-3.6-6.66-3.79 1.1-7.48 8.36-10.17 14.63-8.39 12.44-22.36 29.46-32.14 38.41-8.68 7.47-16.67 9.46-6.89-4.48 4-5.57 9.08-11.54 11.98-17.51 6.89-15.03-7.79-21.7-19.66-12.64-6.89 5.27-16.17 16.12-23.46 22.1-2 1.58-1.5 3.97.5 2.38 5.8-4.68 15.97-15.43 24.75-21.7 7.29-5.57 10.18-1.99 6 2.7-5.8 6.66-15.98 18.3-18.57 25.67-3.6 11.05.7 15.92 7.98 15.92 9.98 0 24.85-15.52 34.83-27.86 3.3-4.18 6.9-9.06 9.98-13.74-8.68 16.82-17.76 33.84-29.04 49.27-15.97 21.7-35.93 38.01-54.89 38.01-13.67 0-25.45-9.25-27.95-22.79-.2-1.49-2-1.79-1.8.2 3.1 18.61 17.47 25.88 34.84 25.88 19.06 0 37.43-11.05 50.3-24.58 25.95-27.37 29.04-58.13 37.03-75.34 3.8-7.87 7.28-8.26 9.98-7.87zm105.6-26.37c3.79-6.47 3.59-11.54-5.3-11.54-6.68.2-18.86 4.87-24.55 9.25-1.3 1.3-.7 2 .9 1.3 1.1-.4 2.4-1.1 3.6-1.6 6.38-3.48 3.79 3.78 2.39 6.47-7.59 13.24-21.06 31.85-28.15 41.1a140.68 140.68 0 01-10.88 12.94c-6.78 6.47-20.26 17.92-30.54 21.7-33.03 12.34 9.09-43.8 12.58-48.37 7.78-9.75 25.25-26.77 30.54-35.33 3.8-6.47 3.6-11.54-5.29-11.54-6.69.2-18.86 4.87-24.55 9.25-1.3 1.3-.7 2 .9 1.3 1.1-.4 2.4-1.1 3.59-1.6 6.39-3.48 3.8 3.78 2.4 6.47-7.59 13.24-21.06 31.85-28.15 41.1-5.79 7.77-12.88 15.53-18.36 19.9-2.2 1.8-.9 3.5 1.3 2 1.99-1.3 4.88-4.18 8.18-7.56-6 11.94-10.88 28.76 4.89 30.75 13.47 1.79 29.44-11.85 39.82-22l3.7-3.68.9-.9c-6 11.95-10.89 28.77 4.88 30.76 17.27 2.39 38.73-20.8 47.01-29.36 1.6-1.6 1.1-4.38-1.6-1.6-4.89 5.08-21.45 20.11-33.43 24.59-33.04 12.34 9.08-43.8 12.57-48.37 7.99-9.95 25.35-26.97 30.64-35.43z" fill="url(#e)"/>
</svg>
