<svg xmlns="http://www.w3.org/2000/svg" viewBox="0 0 291.32 291.32"><path d="M145.66 0c80.45 0 145.66 65.22 145.66 145.66S226.1 291.32 145.66 291.32 0 226.1 0 145.66 65.21 0 145.66 0z" fill="#0e76a8"/><path d="M82.08 200.14h27.27v-90.91H82.08v90.9zm106.26-94.06c-13.24 0-25.08 4.83-33.49 15.5v-12.65h-27.37v91.2h27.38v-49.32c0-10.42 9.55-20.59 21.5-20.59s14.92 10.17 14.92 20.34v49.57h27.27v-51.6c0-35.84-16.97-42.45-30.21-42.45zm-92.75-5.94a13.66 13.66 0 10-.01-27.32 13.66 13.66 0 000 27.32z" fill="#fff"/></svg>