<svg xmlns="http://www.w3.org/2000/svg" width="96" height="96">
  <defs>
    <filter height="1.1576" y="-.0788" width="1.1431" x="-.0715" id="i" color-interpolation-filters="sRGB">
      <feGaussianBlur stdDeviation="3.6654"/>
    </filter>
    <filter color-interpolation-filters="sRGB" id="h" x="-.1861" width="1.3721" y="-.183" height="1.3659">
      <feGaussianBlur stdDeviation=".5908"/>
    </filter>
    <filter color-interpolation-filters="sRGB" id="g" x="-.3046" width="1.6092" y="-.2995" height="1.599">
      <feGaussianBlur stdDeviation=".9672"/>
    </filter>
    <filter color-interpolation-filters="sRGB" id="f" x="-.2512" width="1.5025" y="-.247" height="1.4941">
      <feGaussianBlur stdDeviation=".7978"/>
    </filter>
    <filter height="1.1576" y="-.0788" width="1.1431" x="-.0715" id="e" color-interpolation-filters="sRGB">
      <feGaussianBlur stdDeviation="3.6654"/>
    </filter>
    <filter height="1.1876" y="-.0938" width="1.125" x="-.0625" id="d" color-interpolation-filters="sRGB">
      <feGaussianBlur stdDeviation="2.1263"/>
    </filter>
    <filter color-interpolation-filters="sRGB" id="c" x="-.1273" width="1.2546" y="-.0938" height="1.1876">
      <feGaussianBlur stdDeviation="1.4176"/>
    </filter>
    <filter color-interpolation-filters="sRGB" id="b" x="-.1273" width="1.2546" y="-.0938" height="1.1876">
      <feGaussianBlur stdDeviation="1.4176"/>
    </filter>
    <filter color-interpolation-filters="sRGB" id="a" x="-.0582" width="1.1165" y="-.0408" height="1.0817">
      <feGaussianBlur stdDeviation="3.9374"/>
    </filter>
  </defs>
  <path d="M72.56 38.9769c-5.516-4.9506-7.8335-12.4442-6.7043-19.7694a15.961 15.961 0 00.1672-3.1814C65.6403 7.8526 58.9043 1.244 50.725 1.0068 41.7936.748 34.472 7.9111 34.472 16.7844c0 1.3304.1646 2.6223.4744 3.8563 1.8005 7.17.0238 14.7524-5.0453 20.1332-5.0882 5.4012-8.3069 12.6545-8.3069 20.6439 0 18.4002 7.1607 27.2677 17.4061 30.0614 2.3572-1.058 5.7756-1.724 9.5803-1.724 3.619 0 6.8871.6027 9.2263 1.5721 12.6418-2.5341 18.6389-8.6913 22.823-22.907 3.342-11.3544-1.8391-23.8517-8.0698-29.4434z"/>
  <path filter="url(#a)" fill="#fff" opacity=".7" d="M84.2246 242.4477c0-45.34 36.325-150.337 81.134-150.337s81.134 105.528 81.134 150.337c0 44.809-36.325 81.134-81.134 81.134s-81.134-36.325-81.134-81.134z" transform="translate(6 1) scale(.26458)"/>
  <path fill="#fff" d="M28.2843 65.1476c0-11.9962 9.611-39.7766 21.4667-39.7766 11.8558 0 21.4668 27.9209 21.4668 39.7766 0 11.8557-9.611 21.4667-21.4667 21.4667-11.8558 0-21.4668-9.611-21.4668-21.4667zM45.3696 19.31a3.5356 4.7995 0 01-3.5356 4.7995 3.5356 4.7995 0 01-3.5356-4.7995 3.5356 4.7995 0 013.5356-4.7996 3.5356 4.7995 0 013.5357 4.7996"/>
  <path filter="url(#b)" fill="#fff" opacity=".7" d="M148.7987 69.2027a13.363 18.14 0 01-13.363 18.14 13.363 18.14 0 01-13.363-18.14 13.363 18.14 0 0113.363-18.14 13.363 18.14 0 0113.363 18.14" transform="translate(6 1) scale(.26458)"/>
  <path fill="#000100" d="M43.5873 20.4a1.7534 3.1112 0 01-1.7534 3.1112A1.7534 3.1112 0 0140.0805 20.4a1.7534 3.1112 0 011.7534-3.1113A1.7534 3.1112 0 0143.5873 20.4"/>
  <path fill="#fff" d="M57.9584 19.3099a3.5356 4.7995 0 01-3.5356 4.7995 3.5356 4.7995 0 01-3.5356-4.7995 3.5356 4.7995 0 013.5356-4.7996 3.5356 4.7995 0 013.5356 4.7996"/>
  <path filter="url(#c)" fill="#fff" opacity=".7" d="M196.3786 69.2027a13.363 18.14 0 01-13.363 18.14 13.363 18.14 0 01-13.363-18.14 13.363 18.14 0 0113.363-18.14 13.363 18.14 0 0113.363 18.14" transform="translate(6 1) scale(.26458)"/>
  <path fill="#000100" d="M56.1762 20.4a1.7534 3.1112 0 01-1.7534 3.1112A1.7534 3.1112 0 0152.6694 20.4a1.7534 3.1112 0 011.7534-3.1113A1.7534 3.1112 0 0156.1762 20.4"/>
  <path fill="#ae4e32" d="M48.4205 33.2563c-3.1983 0-6.4604-1.5631-9.7131-4.6585l1.0943-1.1501c3.243 3.0855 6.427 4.4905 9.4612 4.1777 4.1886-.4326 6.7101-4.0177 6.735-4.0536l1.3065.9022c-.119.1722-2.9702 4.2238-7.8782 4.7305a9.7606 9.7606 0 01-1.0057.0518z"/>
  <path fill="#9e402b" d="M49.2626 31.6254c-.2262.0233-.4537.034-.6818.0381v1.5886c.282-.0048.5638-.0185.8446-.0476 4.9082-.5067 7.7591-4.5585 7.8782-4.7305l-1.3065-.9022c-.0243.036-2.5461 3.621-6.7345 4.0536z"/>
  <path fill="#fe9a0f" d="M59.1588 27.5175c1.1547 2.4625-7.6395 7.1345-10.7018 7.1345-3.8198 0-11.7967-5.6457-10.7019-7.1345 2.0429-2.7781 6.5032-7.2607 10.165-7.2607 2.6382 0 10.454 5.5875 11.2387 7.2607z"/>
  <path fill="#e2810c" d="M59.1586 27.5175c-.7274-1.5507-7.4909-6.4606-10.5778-7.1715v14.3004c3.165-.1164 11.7179-4.6979 10.5778-7.1289z"/>
  <path d="M200.9157 100.2237c4.364 9.307-28.874 26.965-40.448 26.965-14.437 0-44.586-21.338-40.448-26.965 7.721-10.5 24.579-27.442 38.419-27.442 9.971 0 39.511 21.118 42.477 27.442z" fill="#fe9a0f" transform="translate(6 1) scale(.26458)" opacity=".7" filter="url(#d)"/>
  <path fill="#ae4e32" d="M48.4205 33.2563c-3.1983 0-6.4604-1.5631-9.7131-4.6585l1.0943-1.1501c3.243 3.0855 6.427 4.4905 9.4612 4.1777 4.1886-.4326 6.7101-4.0177 6.735-4.0536l1.3065.9022c-.119.1722-2.9702 4.2238-7.8782 4.7305a9.7606 9.7606 0 01-1.0057.0518z"/>
  <path fill="#9e402b" d="M49.2626 31.6254c-.2262.0233-.4537.034-.6818.0381v1.5886c.282-.0048.5638-.0185.8446-.0476 4.9082-.5067 7.7591-4.5585 7.8782-4.7305l-1.3065-.9022c-.0243.036-2.5461 3.621-6.7345 4.0536z"/>
  <path fill="#fe9b0e" d="M72.6486 65.8423c1.5605 3.0144 3.8814 5.8613 6.8749 6.5204 2.2077.486 3.8775 2.3646 4.1238 4.6117.034.312.0804.6247.1394.9382.3813 2.0318 1.2441 3.851 2.448 5.3623 1.8073 2.2691.5045 5.6534-2.3456 6.1934l-22.5068 4.2653c-4.9024.9293-8.5902-4.386-6.0036-8.6529l12.427-19.4836c1.163-1.824 3.8486-1.6762 4.8429.2452z"/>
  <path d="M251.9004 245.0734c5.898 11.393 14.67 22.153 25.984 24.644 8.344 1.837 14.655 8.937 15.586 17.43.129 1.179.304 2.361.527 3.546 1.441 7.679 4.702 14.555 9.252 20.267 6.831 8.576 1.907 21.367-8.865 23.408l-85.065 16.121c-18.529 3.512-32.467-16.577-22.691-32.704l46.968-73.639c4.396-6.894 14.546-6.335 18.304.927z" fill="#fe9b0e" transform="translate(6 1) scale(.26458)" opacity=".71" filter="url(#e)"/>
  <path d="M82.8153 69.4114a7.2099 7.2099 0 01-7.21 7.2099 7.2099 7.2099 0 01-7.2098-7.21 7.2099 7.2099 0 017.2098-7.2098 7.2099 7.2099 0 017.21 7.2099M26.885 61.5109s7.7044 9.3927 13.1945 11.5094c5.49 2.1167-2.6112 8.2621-10.0195 3.6018-7.4084-4.6601-3.175-15.1112-3.175-15.1112z"/>
  <path d="M26.5923 60.4726s7.997 10.431 13.4872 12.5477c5.49 2.1167-2.6112 8.2621-10.0195 3.6018-5.7838-3.6383-6.903-15.2941-6.0494-18.2628.2397-.8338 2.5817 2.1133 2.5817 2.1133z"/>
  <path fill="#fe9b0e" d="M22.7442 65.9427c-1.5605 3.0144-3.8814 5.8613-6.8749 6.5204-2.2077.486-3.8775 2.3646-4.1238 4.6117a12.4412 12.4412 0 01-.1392.9382c-.3812 2.0317-1.244 3.851-2.4479 5.3623-1.8073 2.269-.5045 5.6533 2.3456 6.1934l22.5067 4.2653c4.9025.9292 8.5903-4.386 6.0037-8.653l-12.427-19.4836c-1.1633-1.824-3.8489-1.6761-4.8432.2453z"/>
  <path fill="#fff" d="M41.304 63.4186a1.3705 1.3705 0 01-1.0119 1.0306c.5.1243.888.5183 1.0045 1.0201a1.3706 1.3706 0 011.012-1.0304 1.3705 1.3705 0 01-1.0045-1.0203zm-2.0112-1.6256a1.3705 1.3705 0 01-1.012 1.0306c.5.1243.888.5184 1.0045 1.0201a1.3706 1.3706 0 011.012-1.0304 1.3705 1.3705 0 01-1.0045-1.0203zm-2.4757 1.5986a1.3705 1.3705 0 01-1.012 1.0306c.5.1243.888.5183 1.0045 1.0201a1.3706 1.3706 0 011.012-1.0304 1.3705 1.3705 0 01-1.0045-1.0203z" class="spark3"/>
  <path filter="url(#f)" fill="#fff" class="spark3" d="M133.433 235.9128a5.18 5.18 0 01-3.8246 3.8953 5.1801 5.1801 0 013.7963 3.8554 5.1802 5.1802 0 013.8249-3.8945 5.1799 5.1799 0 01-3.7966-3.8562z" transform="translate(6 1) scale(.26458)"/>
  <path filter="url(#g)" fill="#fff" d="M125.8313 229.769a5.18 5.18 0 01-3.8246 3.8952 5.1801 5.1801 0 013.7963 3.8554 5.1802 5.1802 0 013.8249-3.8946 5.1799 5.1799 0 01-3.7966-3.856z" class="spark3" transform="translate(6 1) scale(.26458)"/>
  <path filter="url(#h)" fill="#fff" d="M116.4743 235.8108a5.18 5.18 0 01-3.8246 3.8953 5.1801 5.1801 0 013.7963 3.8554 5.1802 5.1802 0 013.8249-3.8946 5.1799 5.1799 0 01-3.7966-3.8561z" class="spark3" transform="translate(6 1) scale(.26458)"/>
  <path d="M63.2856 245.4527c-5.898 11.393-14.67 22.153-25.984 24.644-8.344 1.837-14.655 8.937-15.586 17.43a47.0304 47.0304 0 01-.526 3.546c-1.441 7.679-4.702 14.555-9.252 20.267-6.831 8.576-1.907 21.367 8.865 23.408l85.065 16.121c18.529 3.512 32.467-16.577 22.691-32.704l-46.968-73.639c-4.397-6.894-14.547-6.335-18.305.927z" fill="#fe9b0e" transform="translate(6 1) scale(.26458)" opacity=".7" filter="url(#i)"/>
</svg>
