<svg xmlns="http://www.w3.org/2000/svg" viewBox="0 0 480 480"><g fill="#fff"><path d="M285.26 461.25l128-128a64.04 64.04 0 000-90.5A63.51 63.51 0 00368.02 224a63.51 63.51 0 00-45.25 18.75l-82.75 82.75-82.76-82.75A63.56 63.56 0 00112.02 224a63.56 63.56 0 00-45.25 18.75A63.56 63.56 0 0048.02 288a63.56 63.56 0 0018.75 45.25l128 128A63.51 63.51 0 00240.02 480a63.51 63.51 0 0045.24-18.75zm-67.87-22.63l-128-128c-12.1-12.12-12.1-33.12 0-45.24a32.02 32.02 0 0145.25 0l105.38 105.37 105.37-105.37a31.78 31.78 0 0122.63-9.38c8.54 0 16.57 3.33 22.62 9.38a32.01 32.01 0 01.03 45.25l-128 128a31.91 31.91 0 01-22.65 9.37 31.78 31.78 0 01-22.63-9.38z"/><path d="M285.26 237.25l128-128a64.04 64.04 0 000-90.5A63.51 63.51 0 00368.02 0a63.51 63.51 0 00-45.25 18.75l-82.75 82.75-82.76-82.75A63.56 63.56 0 00112.02 0a63.56 63.56 0 00-45.25 18.75A63.56 63.56 0 0048.02 64a63.56 63.56 0 0018.75 45.25l128 128A63.51 63.51 0 00240.02 256a63.51 63.51 0 0045.24-18.75zm-67.87-22.63l-128-128c-12.1-12.12-12.1-33.12 0-45.24a32.02 32.02 0 0145.25 0l105.38 105.37L345.39 41.38A31.78 31.78 0 01368.02 32c8.54 0 16.57 3.33 22.62 9.38a32.01 32.01 0 01.03 45.25l-128 128a31.91 31.91 0 01-22.65 9.37 31.78 31.78 0 01-22.63-9.38z"/></g></svg>