<svg xmlns="http://www.w3.org/2000/svg" width="96" height="96"><defs><filter height="1.16" y="-.08" width="1.14" x="-.07" id="i" color-interpolation-filters="sRGB"><feGaussianBlur stdDeviation="3.67"/></filter><filter color-interpolation-filters="sRGB" id="h" x="-.19" width="1.37" y="-.18" height="1.37"><feGaussianBlur stdDeviation=".59"/></filter><filter color-interpolation-filters="sRGB" id="g" x="-.3" width="1.61" y="-.3" height="1.6"><feGaussianBlur stdDeviation=".97"/></filter><filter color-interpolation-filters="sRGB" id="f" x="-.25" width="1.5" y="-.25" height="1.49"><feGaussianBlur stdDeviation=".8"/></filter><filter height="1.16" y="-.08" width="1.14" x="-.07" id="e" color-interpolation-filters="sRGB"><feGaussianBlur stdDeviation="3.67"/></filter><filter height="1.19" y="-.09" width="1.13" x="-.06" id="d" color-interpolation-filters="sRGB"><feGaussianBlur stdDeviation="2.13"/></filter><filter color-interpolation-filters="sRGB" id="c" x="-.13" width="1.25" y="-.09" height="1.19"><feGaussianBlur stdDeviation="1.42"/></filter><filter color-interpolation-filters="sRGB" id="b" x="-.13" width="1.25" y="-.09" height="1.19"><feGaussianBlur stdDeviation="1.42"/></filter><filter color-interpolation-filters="sRGB" id="a" x="-.06" width="1.12" y="-.04" height="1.08"><feGaussianBlur stdDeviation="3.94"/></filter></defs><path d="M72.56 38.98c-5.52-4.95-7.83-12.45-6.7-19.77a15.96 15.96 0 00.16-3.18A15.86 15.86 0 0050.72 1a15.78 15.78 0 00-15.77 19.63c1.8 7.17.02 14.75-5.05 20.13a30.08 30.08 0 00-8.3 20.65c0 18.4 7.15 27.27 17.4 30.06 2.36-1.06 5.78-1.72 9.58-1.72 3.62 0 6.89.6 9.23 1.57 12.64-2.54 18.64-8.7 22.82-22.91 3.34-11.35-1.84-23.85-8.07-29.44z"/><path filter="url(#a)" fill="#fff" opacity=".7" d="M84.22 242.45c0-45.34 36.33-150.34 81.14-150.34s81.13 105.53 81.13 150.34a81.13 81.13 0 01-162.27 0z" transform="translate(6 1) scale(.26458)"/><path fill="#fff" d="M28.28 65.15c0-12 9.62-39.78 21.47-39.78 11.86 0 21.47 27.92 21.47 39.78a21.47 21.47 0 01-42.94 0zM45.37 19.3a3.54 4.8 0 01-3.54 4.8 3.54 4.8 0 01-3.53-4.8 3.54 4.8 0 013.53-4.8 3.54 4.8 0 013.54 4.8"/><path filter="url(#b)" fill="#fff" opacity=".7" d="M148.8 69.2a13.36 18.14 0 01-13.36 18.14 13.36 18.14 0 01-13.37-18.14 13.36 18.14 0 0113.37-18.14A13.36 18.14 0 01148.8 69.2" transform="translate(6 1) scale(.26458)"/><path fill="#000100" d="M43.59 20.4a1.75 3.11 0 01-1.76 3.11 1.75 3.11 0 01-1.75-3.11 1.75 3.11 0 011.75-3.11 1.75 3.11 0 011.76 3.11"/><path fill="#fff" d="M57.96 19.31a3.54 4.8 0 01-3.54 4.8 3.54 4.8 0 01-3.53-4.8 3.54 4.8 0 013.53-4.8 3.54 4.8 0 013.54 4.8"/><path filter="url(#c)" fill="#fff" opacity=".7" d="M196.38 69.2a13.36 18.14 0 01-13.36 18.14 13.36 18.14 0 01-13.37-18.14 13.36 18.14 0 0113.37-18.14 13.36 18.14 0 0113.36 18.14" transform="translate(6 1) scale(.26458)"/><path fill="#000100" d="M56.18 20.4a1.75 3.11 0 01-1.76 3.11 1.75 3.11 0 01-1.75-3.11 1.75 3.11 0 011.75-3.11 1.75 3.11 0 011.76 3.11"/><path fill="#ae4e32" d="M48.42 33.26c-3.2 0-6.46-1.57-9.71-4.66l1.1-1.15c3.23 3.08 6.42 4.49 9.45 4.18 4.2-.44 6.71-4.02 6.74-4.06l1.3.9c-.11.18-2.97 4.23-7.87 4.73a9.76 9.76 0 01-1.01.06z"/><path fill="#9e402b" d="M49.26 31.63c-.22.02-.45.03-.68.03v1.6l.85-.06c4.9-.5 7.75-4.55 7.87-4.73l-1.3-.9c-.03.04-2.55 3.62-6.74 4.06z"/><path fill="#fe9a0f" d="M59.16 27.52c1.15 2.46-7.64 7.13-10.7 7.13-3.82 0-11.8-5.64-10.7-7.13 2.04-2.78 6.5-7.26 10.16-7.26 2.64 0 10.45 5.58 11.24 7.26z"/><path fill="#e2810c" d="M59.16 27.52c-.73-1.55-7.5-6.46-10.58-7.17v14.3c3.17-.12 11.72-4.7 10.58-7.13z"/><path d="M200.92 100.22c4.36 9.31-28.88 26.97-40.45 26.97-14.44 0-44.59-21.34-40.45-26.97 7.72-10.5 24.58-27.44 38.42-27.44 9.97 0 39.51 21.12 42.48 27.44z" fill="#fe9a0f" transform="translate(6 1) scale(.26458)" opacity=".7" filter="url(#d)"/><path fill="#ae4e32" d="M48.42 33.26c-3.2 0-6.46-1.57-9.71-4.66l1.1-1.15c3.23 3.08 6.42 4.49 9.45 4.18 4.2-.44 6.71-4.02 6.74-4.06l1.3.9c-.11.18-2.97 4.23-7.87 4.73a9.76 9.76 0 01-1.01.06z"/><path fill="#9e402b" d="M49.26 31.63c-.22.02-.45.03-.68.03v1.6l.85-.06c4.9-.5 7.75-4.55 7.87-4.73l-1.3-.9c-.03.04-2.55 3.62-6.74 4.06z"/><path fill="#fe9b0e" d="M72.65 65.84c1.56 3.02 3.88 5.86 6.87 6.52a5.33 5.33 0 014.13 4.61 12.24 12.24 0 002.58 6.3c1.81 2.27.5 5.66-2.34 6.2l-22.5 4.26a5.77 5.77 0 01-6.01-8.65L67.8 65.6a2.8 2.8 0 014.84.24z"/><path d="M251.9 245.07c5.9 11.4 14.67 22.16 25.98 24.65a20.16 20.16 0 0115.59 17.43 46.53 46.53 0 009.78 23.81c6.83 8.58 1.9 21.37-8.87 23.4l-85.06 16.13c-18.53 3.51-32.47-16.58-22.7-32.7l46.98-73.64c4.4-6.9 14.54-6.34 18.3.92z" fill="#fe9b0e" transform="translate(6 1) scale(.26458)" opacity=".71" filter="url(#e)"/><path d="M82.82 69.41a7.21 7.21 0 01-7.21 7.21 7.21 7.21 0 01-7.21-7.2 7.21 7.21 0 017.2-7.22 7.21 7.21 0 017.22 7.21m-55.93-7.9s7.7 9.4 13.19 11.51c5.49 2.12-2.61 8.26-10.02 3.6-7.4-4.66-3.17-15.1-3.17-15.1z"/><path d="M26.6 60.47s7.99 10.43 13.48 12.55c5.49 2.12-2.61 8.26-10.02 3.6-5.78-3.64-6.9-15.3-6.05-18.26.24-.83 2.58 2.11 2.58 2.11z"/><path fill="#fe9b0e" d="M22.74 65.94c-1.56 3.02-3.88 5.86-6.87 6.52a5.33 5.33 0 00-4.12 4.61 12.44 12.44 0 01-.14.94 12.19 12.19 0 01-2.45 5.37 3.87 3.87 0 002.34 6.19l22.51 4.26a5.77 5.77 0 006-8.65L27.6 65.7a2.8 2.8 0 00-4.85.24z"/><path fill="#fff" d="M41.3 63.42a1.37 1.37 0 01-1 1.03c.5.12.88.52 1 1.02a1.37 1.37 0 011-1.03 1.37 1.37 0 01-1-1.02zm-2-1.63a1.37 1.37 0 01-1.02 1.03c.5.13.89.52 1 1.02a1.37 1.37 0 011.02-1.03 1.37 1.37 0 01-1-1.02zm-2.48 1.6a1.37 1.37 0 01-1.01 1.03c.5.13.88.52 1 1.02a1.37 1.37 0 011.01-1.03 1.37 1.37 0 01-1-1.02z" class="spark3"/><path filter="url(#f)" fill="#fff" class="spark3" d="M133.43 235.91a5.18 5.18 0 01-3.82 3.9 5.18 5.18 0 013.8 3.85 5.18 5.18 0 013.82-3.9 5.18 5.18 0 01-3.8-3.85z" transform="translate(6 1) scale(.26458)"/><path filter="url(#g)" fill="#fff" d="M125.83 229.77a5.18 5.18 0 01-3.82 3.9 5.18 5.18 0 013.8 3.85 5.18 5.18 0 013.82-3.9 5.18 5.18 0 01-3.8-3.85z" class="spark3" transform="translate(6 1) scale(.26458)"/><path filter="url(#h)" fill="#fff" d="M116.47 235.81a5.18 5.18 0 01-3.82 3.9 5.18 5.18 0 013.8 3.85 5.18 5.18 0 013.82-3.9 5.18 5.18 0 01-3.8-3.85z" class="spark3" transform="translate(6 1) scale(.26458)"/><path d="M63.29 245.45c-5.9 11.4-14.67 22.16-25.99 24.65a20.16 20.16 0 00-15.58 17.43 47.03 47.03 0 01-.53 3.54 46.06 46.06 0 01-9.25 20.27c-6.83 8.58-1.9 21.37 8.86 23.4l85.07 16.13c18.53 3.51 32.46-16.58 22.69-32.7l-46.97-73.64c-4.4-6.9-14.55-6.34-18.3.92z" fill="#fe9b0e" transform="translate(6 1) scale(.26458)" opacity=".7" filter="url(#i)"/></svg>