<svg xmlns="http://www.w3.org/2000/svg" viewBox="0 0 512 512"><path d="M257.765 465.723L0 179.767l89.548-133.49h332.46l89.375 133.235-253.618 286.211z" fill="#ff3997"/><path fill="#d6298c" d="M257.828 465.651l253.554-286.139-89.374-133.235h-164.18z"/><path fill="#ff5ca8" d="M0 179.767l257.765 285.956 252.9-285.396z"/><g fill="#ff3997"><path d="M257.828 180.05v285.601l252.837-285.324z"/><path d="M257.765 465.723L151.732 180.327h208.535L257.765 465.723z"/></g><g fill="#d6298c"><path d="M360.268 180.327H151.732l106.102-134.05 102.434 134.05zM0 179.767l151.732.56-62.184-134.05z"/></g><path fill="#ff5ca8" d="M512 179.767l-151.732.56 62.185-134.05z"/><path fill="#d6298c" d="M257.828 180.327v285.219l102.44-285.219z"/><g fill="#bf1b81"><path d="M257.828 46.288v134.039h102.44zM512 179.767l-151.732.56 62.185-134.05z"/></g></svg>